<svg width="220mm" height="140mm" viewBox="0 0 573.17 379.32" style="border:1px dashed #cccccc" xmlns="http://www.w3.org/2000/svg" xmlns:xlink="http://www.w3.org/1999/xlink">
    <title>电子发票</title>
    <style type="text/css" >
        <![CDATA[
        g.background path{fill:#9d6b17;}
        text{font-family:STHeiti, SimHei;font-size:9px;over}
        text.mono{font-family:Courier, Monaco;}
        ]]>
    </style>
    <g id="底图" class="background">
        <path d="M30,87.67h1.16V358.49H30Zm.35,61.65H602.59v-1.16H30.35ZM179.81,298.52H181V149h-1.16Zm68.42-18.91h1.16V148.82h-1.16ZM368.44,149h1.16V88.39h-1.16ZM54,148.46h1.16V88.55H54ZM384.62,357.91h1.16V298.09h-1.16Zm-16.62.44h1.16V298.59H368ZM199.81,58.48h232V57.32h-232Zm0-4.07h232V53.25h-232ZM384.73,149h1.16V88.39h-1.16ZM30,88.58H603.17V87.42H30Zm.35,191.31H602.59v-1.16H30.35Zm-.28,19.2H602.32v-1.16H30.08Zm.73,59.4H603v-1.16H30.8Zm23.19,0h1.16V298.8H54Zm548,0h1.16V87.67H602Zm-316.7-79.76h1.16V148.22h-1.16Zm62.13.89h1.16V148.82h-1.16Zm66.2,0h1.16V148.82h-1.16Zm107.76,0h1.16V148.82h-1.16Zm-31.23,0h1.16V148.82h-1.16Z" id="线条" transform="translate(-30 -10)"/>
        <path d="M550.24,155.45V154q-.61.11-1.24.18l-.13-.67a13.36,13.36,0,0,0,3-.63l.23.68c-.38.12-.77.22-1.18.31v1.6H552v.7h-1.13v.64a21.46,21.46,0,0,1,1.33,1.71l-.37.62c-.37-.67-.69-1.19-1-1.59v4.38h-.64v-4.42a11.12,11.12,0,0,1-1.26,2.58l-.29-.84a8.57,8.57,0,0,0,1.5-3.08h-1.27v-.7Zm3.88-.91-.55.3a13.45,13.45,0,0,0-.82-1.76l.54-.28C553.58,153.33,553.86,153.91,554.12,154.54Zm2.39,5.07a5.08,5.08,0,0,1-.15,1.36.29.29,0,0,1-.28.19h-.4c-.17,0-.26-.13-.26-.37v-2.71h1v-3.2h-1.05a11.7,11.7,0,0,0,.83-2l-.62-.24a15.54,15.54,0,0,1-.89,2.21h-2.15v3.2h.84a4.14,4.14,0,0,1-1.43,3.3l.35.64a4.94,4.94,0,0,0,1.69-3.93h.84v2.86c0,.59.22.89.67.89h.71a.67.67,0,0,0,.6-.27,4.51,4.51,0,0,0,.29-1.75Zm-3.37-2.18v-1.91h2.66v1.91Zm19-2.09h-.58v-1h-2.7v1h-.58v-1.67H570a8.63,8.63,0,0,0-.41-.9l.66-.12c.13.3.26.64.39,1h1.54Zm-1.26,1.89a6.59,6.59,0,0,0,.82-1.36v-.49H570c.08-.2.16-.42.23-.66l-.6-.09a4.63,4.63,0,0,1-1.53,2.28l.35.51a7.16,7.16,0,0,0,.67-.66c.31.18.61.37.91.56a4.44,4.44,0,0,1-2,1.09l.25.54a5.15,5.15,0,0,0,2.24-1.31,13.09,13.09,0,0,1,1.51,1.16l.41-.45C572,158,571.46,157.62,570.88,157.23Zm-.49-.31c-.29-.19-.61-.38-1-.57.09-.13.17-.26.26-.4H571A5.68,5.68,0,0,1,570.39,156.92Zm-1.54,1.92v3.07h.6v-.52h1.65v.52h.59v-3.07Zm2.25,1.93h-1.65v-1.32h1.65Zm3.58-4.62V158a5.82,5.82,0,0,1-.54,2.59,3.34,3.34,0,0,1-1.65,1.4l-.34-.57a3.1,3.1,0,0,0,1.52-1.27,5.24,5.24,0,0,0,.43-2.15v-1.84Zm1.8-3v.67h-1.69c0,.4-.11.78-.18,1.14h1.54v4.73h-.59v-4.13h-2.29v4.14h-.59v-4.74H574a10.89,10.89,0,0,0,.16-1.14h-1.71v-.67Zm.06,8.36-.43.46a11,11,0,0,0-1.52-1.7l.39-.42A11.78,11.78,0,0,1,576.53,161.5Z" id="税额" transform="translate(-30 -10)"/>
        <path d="M501.41,158.49l-.37.62c-.37-.67-.69-1.19-1-1.59v4.38h-.64v-4.42a11.12,11.12,0,0,1-1.26,2.58l-.29-.84a8.57,8.57,0,0,0,1.5-3.08h-1.27v-.7h1.32V154q-.61.11-1.24.18l-.13-.67a13.36,13.36,0,0,0,3-.63l.23.68c-.38.12-.77.22-1.18.31v1.6h1.13v.7h-1.13v.64A21.45,21.45,0,0,1,501.41,158.49Zm4.3,1.12.58.2a4.51,4.51,0,0,1-.29,1.75.67.67,0,0,1-.6.27h-.71c-.45,0-.67-.3-.67-.89v-2.86h-.84A4.94,4.94,0,0,1,501.5,162l-.35-.64a4.14,4.14,0,0,0,1.43-3.3h-.84v-3.2h2.15a15.54,15.54,0,0,0,.89-2.21l.62.24a11.7,11.7,0,0,1-.83,2h1.05v3.2h-1v2.71c0,.24.08.37.26.37h.4a.29.29,0,0,0,.28-.19A5.08,5.08,0,0,0,505.71,159.61Zm-.71-2.18v-1.91h-2.66v1.91Zm-1.69-2.89c-.27-.63-.54-1.21-.83-1.73l-.54.28a13.45,13.45,0,0,1,.82,1.76Zm8.28,4.71v-1.18c.3,0,.61-.09.9-.15.07.21.16.44.23.69l.6-.29a12.88,12.88,0,0,0-.79-1.88l-.56.2c.1.22.2.46.31.73q-.83.15-1.71.27a18.15,18.15,0,0,0,2.32-2.75l-.59-.26-.64.92-1.2.12a5.57,5.57,0,0,0,.9-1.41h3.83v-.69h-3.61a7.43,7.43,0,0,0-.41-1l-.67.12a6.2,6.2,0,0,1,.42.84h-3.61v.69h3.37a3.27,3.27,0,0,1-1.16,1.45l.13.59,1.54-.13a6.65,6.65,0,0,1-1.46,1.44l-.24.06.13.64,1.28-.13v1.09h-3.74v.7h3.74V162h.68v-2.06h3.76v-.7Zm-3.76-.66a8.64,8.64,0,0,0,1.5-1.59l-.5-.4A8.23,8.23,0,0,1,507.4,158Zm.94-2.28.46-.5a9.4,9.4,0,0,0-1.3-1.22l-.46.48A7.94,7.94,0,0,1,508.78,156.31Zm6.13-1.34-.51-.41a7.2,7.2,0,0,1-1.19,1.23l.41.52A8,8,0,0,0,514.92,155Zm.2,3.1a11.28,11.28,0,0,0-1.43-1.47l-.42.44a9.4,9.4,0,0,1,1.38,1.55Z" id="税率" transform="translate(-30 -10)"/>
        <path d="M83.59,263.83a13.44,13.44,0,0,0,4,3.5l-.36.7a13.3,13.3,0,0,1-3.92-3.54,13.72,13.72,0,0,1-4,3.56l-.35-.7a13.82,13.82,0,0,0,4.06-3.52Zm2.66,9.25h-.64v-.61H81.09v.61h-.64V269h5.8Zm-.51-6v.7H81V267Zm-.13,4.74V269.7H81.09v2.08Zm40.4-4.85v4.49c.33-.3.7-.65,1.08-1l.17.75a13,13,0,0,1-1.83,1.61l-.26-.66a.55.55,0,0,0,.21-.42v-4H124v-.7Zm.66-1.43-.45.5a10.38,10.38,0,0,0-1.58-1.56l.46-.49A10.89,10.89,0,0,1,126.66,265.5Zm2.71,1.37v-3h.68v3h2.36v.73h-2.36v5.52h-.68V267.6h-2.48v-.73Z" id="合计" transform="translate(-30 -10)"/>
        <path d="M439.69,156.72l-.39-.61a11.66,11.66,0,0,0,3.91-3h.53a9.71,9.71,0,0,0,3.88,3l-.38.61a10.66,10.66,0,0,1-1.36-.75v.55h-2.08v1.45h3.26v.68h-3.26v2.69h1a16.42,16.42,0,0,0,.83-2.12l.61.23a13.38,13.38,0,0,1-.76,1.89h1.9v.7h-7.84v-.7h1.9a10.24,10.24,0,0,0-.73-1.81l.6-.24a12.73,12.73,0,0,1,.78,2h1.05v-2.69h-3.27v-.68h3.27V156.5h-2.08v-.59A13.67,13.67,0,0,1,439.69,156.72Zm3.79-2.93a11.91,11.91,0,0,1-2.31,2h4.57A9.18,9.18,0,0,1,443.48,153.79ZM459,157.74l-.35-.51a4.63,4.63,0,0,0,1.53-2.28l.6.09c-.07.23-.15.45-.23.66h1.71v.49a6.59,6.59,0,0,1-.82,1.36c.58.38,1.09.76,1.55,1.13l-.41.45a13.09,13.09,0,0,0-1.51-1.16,5.15,5.15,0,0,1-2.24,1.31l-.25-.54a4.44,4.44,0,0,0,2-1.09c-.29-.19-.6-.38-.91-.56A7.16,7.16,0,0,1,459,157.74Zm3.7-2.08h-.58v-1h-2.7v1h-.58V154h1.68a8.62,8.62,0,0,0-.41-.9l.66-.12c.13.3.26.64.39,1h1.54Zm-.45,6.56h-.59v-.52H460v.52h-.6v-3.07h2.83Zm-.64-6h-1.35c-.08.14-.17.27-.26.4.34.19.66.38,1,.57A5.67,5.67,0,0,0,461.62,156.25Zm.06,4.82v-1.32H460v1.32Zm3.58-4.62v1.84a5.82,5.82,0,0,1-.54,2.59,3.34,3.34,0,0,1-1.65,1.4l-.34-.57a3.1,3.1,0,0,0,1.52-1.27,5.24,5.24,0,0,0,.43-2.15v-1.84Zm1.8-3v.67h-1.69c0,.4-.11.78-.18,1.14h1.54V160h-.59v-4.13h-2.29V160h-.59v-4.74h1.31a10.88,10.88,0,0,0,.17-1.14H463v-.67Zm.06,8.36-.43.46a11,11,0,0,0-1.52-1.7l.39-.42A11.78,11.78,0,0,1,467.1,161.81Z" id="金额" transform="translate(-30 -10)"/>
        <path d="M374,154.37a12,12,0,0,0,.79-1.64l.64.25a8.65,8.65,0,0,1-.74,1.39h1.76v4.15h-2.87v1h3.74v.69h-3.74v1.92h-.66v-1.92h-3.74v-.69h3.74v-1H370v-4.15Zm-1.08,1.74V155h-2.23v1.11Zm0,.63h-2.23v1.13h2.23Zm-.39-2.68-.55.3a9.32,9.32,0,0,0-.87-1.29l.56-.29A11.72,11.72,0,0,1,372.53,154.06Zm1,2.06h2.23V155h-2.23Zm2.23.63h-2.23v1.13h2.23Zm7.68.91-.22-.77a11.62,11.62,0,0,0,2-4.09l.62.31a13.3,13.3,0,0,1-.72,1.94v7h-.68v-5.72A12.48,12.48,0,0,1,383.48,157.65Zm5.34-4.8a8.53,8.53,0,0,0,3,3.55l-.38.62a8.85,8.85,0,0,1-2.88-3.47,9.54,9.54,0,0,1-2.76,3.58l-.37-.62a9.13,9.13,0,0,0,2.83-3.66Zm-1.13,3.51v1.52a5.83,5.83,0,0,1-1.35,4.19l-.5-.47a5.09,5.09,0,0,0,1.21-3.71v-1.52Zm2.37,0V162h-.64v-5.63Z" id="单价" transform="translate(-30 -10)"/>
        <path d="M308.5,157.88c-.06.19-.13.37-.18.55h1.92v.6a4.12,4.12,0,0,1-1,1.72c.44.22.86.44,1.27.69l-.36.56a12.93,12.93,0,0,0-1.41-.8,7.21,7.21,0,0,1-2.28,1.12l-.31-.61a7.84,7.84,0,0,0,1.93-.83c-.4-.19-.83-.38-1.27-.56.24-.44.45-.86.63-1.26h-1.08v-.64h1.34q.12-.33.22-.64Zm-.37-2.83v-1.93h.61V155h1.67v.64h-1.67v.11c.5.27,1,.58,1.52.93l-.34.56q-.69-.61-1.18-1v1.31h-.61v-1.92a4.62,4.62,0,0,1-1.64,2.07l-.32-.59a4,4,0,0,0,1.48-1.51h-1.3V155Zm-.51-.48-.48.24a9.7,9.7,0,0,0-.61-1.31l.52-.19A9,9,0,0,1,307.62,154.56Zm2,4.51h-1.58a7.74,7.74,0,0,1-.5,1c.37.14.72.28,1,.43A3.86,3.86,0,0,0,309.63,159.07Zm.68-5.56a6.89,6.89,0,0,1-.71,1.3l-.47-.26a6.58,6.58,0,0,0,.7-1.28Zm1,3.46a9.31,9.31,0,0,1-.54,1.24l-.41-.55a13.8,13.8,0,0,0,1.09-4.57l.64.12c-.06.51-.13,1-.2,1.44h2.42v.7h-.6a11.7,11.7,0,0,1-.84,4.32,6.08,6.08,0,0,0,1.7,2.1l-.36.6a6.45,6.45,0,0,1-1.65-2,6.57,6.57,0,0,1-1.7,2l-.34-.61a5.79,5.79,0,0,0,1.7-2.1A14.85,14.85,0,0,1,311.32,157Zm.32-1.1a14.87,14.87,0,0,0,.89,3,11.75,11.75,0,0,0,.59-3.57h-1.36Zm17,.41v.54h-8.22v-.54Zm-.91,1v2.57H324.9v.56H328V161H324.9v.6h3.78v.56h-8.2v-.56h3.76V161h-3.07v-.48h3.07v-.56h-2.84v-2.57Zm-.19-4.06v2.49h-6v-2.49Zm-3.35,5.14v-.63H322v.63Zm0,.42H322v.62h2.21Zm2.71-4.54v-.59h-4.7v.59Zm0,.43h-4.7v.6h4.7Zm-2,3.68h2.25v-.63H324.9Zm2.25.42H324.9v.62h2.25Z" id="数量" transform="translate(-30 -10)"/>
        <path d="M263.51,155.31a12,12,0,0,0,.79-1.64l.64.25a8.65,8.65,0,0,1-.74,1.39H266v4.15h-2.87v1h3.74v.69h-3.74V163h-.66V161.1h-3.74v-.69h3.74v-1h-2.87v-4.15Zm-1.08,1.74v-1.11H260.2v1.11Zm0,.63H260.2v1.13h2.23ZM262,155l-.55.3a9.32,9.32,0,0,0-.87-1.29l.56-.29A11.72,11.72,0,0,1,262,155Zm1,2.06h2.23v-1.11h-2.23Zm2.23.63h-2.23v1.13h2.23Zm5.1-3.69a13.22,13.22,0,0,1-.89,2.22V163h-.66v-5.69a14.23,14.23,0,0,1-1,1.29l-.21-.78a11.74,11.74,0,0,0,2.14-4.16Zm3,7.81a32.79,32.79,0,0,0,1.22-5.08l.63.18a36.37,36.37,0,0,1-1.17,4.9h2.08v.72h-5.91v-.72Zm-.53-6.44a12.83,12.83,0,0,0-.45-1.47l.7-.13q.22.7.41,1.6h2.39v.7h-5.52v-.7Zm-.38,5.93-.61.18a44.35,44.35,0,0,0-1-4.45l.61-.2C271.86,158.12,272.18,159.61,272.46,161.29Z" id="单位" transform="translate(-30 -10)"/>
        <path d="M198.37,154.49v-1.38H199v1.38h1.22v.7H199v1.66h1.35v.71H199c0,.26,0,.51-.07.76a23,23,0,0,1,1.58,1.84l-.37.63c-.51-.77-1-1.36-1.31-1.8a6.46,6.46,0,0,1-1.52,3.33l-.49-.47a6.74,6.74,0,0,0,1.52-4.28h-1.4v-.71h1.44v-1.66h-1.31v-.7Zm4.58.47v1.79a8,8,0,0,1-.73,3.6,4.71,4.71,0,0,1-2.24,2l-.35-.62a4.24,4.24,0,0,0,2.12-1.84,7.73,7.73,0,0,0,.61-3.11V155Zm1.56,4h-.63v-4.86h-2.45V159h-.63v-5.54h3.71Zm-1,3.16c-.48,0-.71-.28-.71-.84V159h.6v2.12c0,.22.09.33.29.33h.47a.36.36,0,0,0,.33-.15,3.36,3.36,0,0,0,.17-1.14l.57.2a3.34,3.34,0,0,1-.31,1.51.86.86,0,0,1-.65.23Zm4.46.09h-.65v-5.06a12,12,0,0,1-1.12,2.62l-.28-.79a10,10,0,0,0,1.39-3.31h-1.21V155h1.22v-2H208v2h1v.7h-1v.54c.39.48.78,1,1.17,1.61h0a9.6,9.6,0,0,0,2.1-1.25,6.82,6.82,0,0,1-1-1.28,9.44,9.44,0,0,1-.76,1l-.42-.55a7.87,7.87,0,0,0,1.63-2.72l.63.15q-.14.39-.3.76h2.59v.56a6.68,6.68,0,0,1-1.44,2.16,9.54,9.54,0,0,0,2.22,1.24l-.29.68a10.18,10.18,0,0,1-2.38-1.49,9.76,9.76,0,0,1-2.55,1.52l-.25-.36-.14.23c-.32-.59-.6-1-.82-1.4Zm5.63,0h-.64v-.44h-2.59v.44h-.64v-3.76h3.88Zm-.64-1.12v-2h-2.59v2Zm-.06-6.52h-2.21l-.1.19a5.78,5.78,0,0,0,1.1,1.41A6.11,6.11,0,0,0,212.88,154.62Zm6.15,4.89v-.88h.66v.88h3.15v.67h-3.15v1.18h3.66V162H215.3v-.67H219v-1.18h-3.22v-.67Zm.87-6v.65H219v1.51h1.13v.67H219v2.22h-.64V156.3h-1.2a3.38,3.38,0,0,1-1.05,2.34l-.5-.47a2.68,2.68,0,0,0,.91-1.87h-1.14v-.67h1.17v-1.51h-.94v-.65Zm-2.74,2.16h1.17v-1.51h-1.17Zm4.12-1.93v3.47h-.63v-3.47Zm-.3,4.9-.14-.69c.4,0,.78.05,1.15.05.21,0,.32-.16.32-.46v-4.36h.63v4.53c0,.62-.25.93-.73.93Zm3.39-.94V157h8.24v.7h-5.47l-.31,1.18h4.48a7.36,7.36,0,0,1-.42,2.89,1.48,1.48,0,0,1-1.27.45,10.94,10.94,0,0,1-1.22-.06l-.22-.67q.73.06,1.29.06c.5,0,.8-.11.92-.33a5.85,5.85,0,0,0,.25-1.69H226l.43-1.84Zm6.81-4.29v2.72H225.8v-2.72Zm-.68.66h-4v1.41h4Z" id="规格型号" transform="translate(-30 -10)"/>
        <path d="M127.46,162.06l-.5-.5a9.62,9.62,0,0,0,.56-3.49v-4.84h2.68v7.87c0,.61-.26.92-.77.92h-.73l-.16-.65c.26,0,.49,0,.71,0s.35-.18.35-.54v-2.28h-1.49A10.22,10.22,0,0,1,127.46,162.06Zm2.14-8.18h-1.48v1.7h1.48Zm-1.48,4h1.48v-1.68h-1.48Zm3.48,4.13H131v-8.84h3.71a11.66,11.66,0,0,1-.17,2.48c-.11.41-.45.63-1,.63h-.74l-.17-.63h.61a1.88,1.88,0,0,0,.49-.05.45.45,0,0,0,.25-.29,7.66,7.66,0,0,0,.12-1.48H131.6v3.06h3.12v.62a7.85,7.85,0,0,1-.9,2.65,7.27,7.27,0,0,0,1.46,1.19l-.33.62a7.6,7.6,0,0,1-1.5-1.24A5,5,0,0,1,132,162l-.35-.59a4.62,4.62,0,0,0,1.33-1.19,6.6,6.6,0,0,1-1.18-2.66h-.22Zm1.78-2.37a7.27,7.27,0,0,0,.75-2.1h-1.74A5.78,5.78,0,0,0,133.37,159.68Zm6.15-6.82a6.3,6.3,0,0,1-.35.77h4v.58a8.22,8.22,0,0,1-2.15,1.91,11,11,0,0,0,3.47.94l-.3.68a10.74,10.74,0,0,1-3.88-1.21,13.8,13.8,0,0,1-3.92,1.23l-.3-.69a13.83,13.83,0,0,0,3.5-1,9.58,9.58,0,0,1-1.43-1.14,7.86,7.86,0,0,1-1.15.94l-.4-.59a5.29,5.29,0,0,0,2.24-2.55Zm.87,4.39a7.65,7.65,0,0,1-.09,1.15h3.23a6.67,6.67,0,0,1-.42,3.06,1.67,1.67,0,0,1-1.38.5c-.29,0-.65,0-1.07,0l-.17-.66,1.08.05c.55,0,.89-.14,1-.38a5.25,5.25,0,0,0,.25-1.88h-2.71a4.39,4.39,0,0,1-.29.76,5.42,5.42,0,0,1-3.23,2.25l-.44-.6a5.43,5.43,0,0,0,3-1.84,3.29,3.29,0,0,0,.28-.57h-2.73v-.66h2.92a5.8,5.8,0,0,0,.11-1.15Zm1.83-2.94h-3.5l-.12.16a8.66,8.66,0,0,0,1.7,1.27A8.25,8.25,0,0,0,142.23,154.32Zm5.89,7.7h-.66v-3.56c-.57.2-1.16.38-1.81.55l-.35-.7a15.2,15.2,0,0,0,4-1.41,11.11,11.11,0,0,0-1.65-1.21l.57-.39a13.47,13.47,0,0,1,1.64,1.27,5.84,5.84,0,0,0,2-2.16h-3.39a9.29,9.29,0,0,1-2.38,1.7l-.44-.63a6.46,6.46,0,0,0,3.17-2.71l.72.09a7,7,0,0,1-.5.86h3.58v.65a7.52,7.52,0,0,1-3.57,3.39h3.82V162h-.67v-.6h-4.1Zm4.1-3.58h-4.1v2.28h4.1Zm3.68-2.87v-1.44c-.39.06-.77.12-1.17.16l-.13-.69a13.23,13.23,0,0,0,3-.62l.23.69c-.4.12-.84.24-1.31.34v1.55h1.13v.7h-1.13v.55a19.61,19.61,0,0,1,1.37,1.47l-.37.61c-.39-.61-.72-1.08-1-1.43V162h-.63v-4.58a10.75,10.75,0,0,1-1.27,2.69l-.28-.81a8.27,8.27,0,0,0,1.49-3.07h-1.27v-.7Zm3.33,1.78a13.9,13.9,0,0,1-1.13,3.48l-.57-.39a12.2,12.2,0,0,0,1.08-3.22Zm-.94-.73-.4-.57a7.93,7.93,0,0,0,1.27-3.27l.65.09a11.58,11.58,0,0,1-.32,1.33h3v.47a18.87,18.87,0,0,1-.43,2l-.64-.21a11,11,0,0,0,.41-1.58h-2.62A7.67,7.67,0,0,1,158.29,156.61Zm.61,5.39-.14-.7a7.32,7.32,0,0,0,.79.05c.22,0,.34-.15.34-.44v-5.15h.68v5.34c0,.61-.27.91-.79.91Zm3.93-1.37-.61.29a31.22,31.22,0,0,0-1.06-3.57l.6-.21A29.71,29.71,0,0,1,162.83,160.62Zm-109.67-5-.2-.71a6.79,6.79,0,0,0,2.47-2.17L56,153a6.06,6.06,0,0,1-1,1.21v2.44h-.64v-1.88A10.71,10.71,0,0,1,53.16,155.62Zm4.3,2.68a4.71,4.71,0,0,1-.84,2.66c-.48.56-1.54.93-3.2,1.08l-.27-.66a4.58,4.58,0,0,0,2.93-.85,3.73,3.73,0,0,0,.74-2.3ZM60,160.14h-.68V157.8H54.93v2.48h-.67v-3.15H60Zm-2.15-3.58a.74.74,0,0,1-.84-.84v-.42l-1.15.36-.36-.57c.53-.15,1-.31,1.5-.47v-1.77h.64v1.53A11.35,11.35,0,0,0,60.24,153l.42.48a13.25,13.25,0,0,1-3,1.58v.51c0,.23.12.35.38.35h1.7a.61.61,0,0,0,.43-.13,1.67,1.67,0,0,0,.22-.92l.61.21a2.07,2.07,0,0,1-.38,1.27,1.27,1.27,0,0,1-.76.19Zm3.07,4.93-.37.62a16.05,16.05,0,0,0-3.19-1.4l.33-.55A17.74,17.74,0,0,1,60.95,161.49Zm1.68-4.41L62,156.9a12.35,12.35,0,0,0,.59-3.37l.58.05c0,.44-.06.89-.11,1.32h.64v-2.1h.64v2.1h.77v.71h-.77V158c.26-.13.5-.26.73-.4v.69c-.24.14-.49.27-.73.4V162h-.64v-3c-.47.2-.94.39-1.44.56l-.16-.71a10.76,10.76,0,0,0,1.6-.54v-2.72H63A14.83,14.83,0,0,1,62.62,157.08ZM66.93,153c-.1.52-.21,1-.34,1.45h3.56q0,5.05-.14,6.23A1.34,1.34,0,0,1,68.53,162l-.69,0-.16-.66c.29,0,.54,0,.75,0q.84,0,1-1c.06-.56.1-2.32.12-5.24h-.62a18.47,18.47,0,0,1-.83,4A8.45,8.45,0,0,1,66.18,162l-.4-.57a7.76,7.76,0,0,0,1.72-2.54,15.66,15.66,0,0,0,.8-3.71h-.72a8.48,8.48,0,0,1-2.09,4.79l-.43-.54A7.52,7.52,0,0,0,67,155.12h-.63a6.75,6.75,0,0,1-.83,1.59l-.49-.45a8.29,8.29,0,0,0,1.27-3.48ZM77.36,161a3.79,3.79,0,0,1-.33-.61,6.81,6.81,0,0,1-1.7,1.63l-.36-.63a6.53,6.53,0,0,0,1.75-1.77,10.8,10.8,0,0,1-.32-1.24,18.91,18.91,0,0,1-.33-3.63H71.46v-.71h4.61V152.8h.66v1.29h1.35a8.22,8.22,0,0,0-.51-1l.67-.12a11.37,11.37,0,0,1,.49,1.13h.89v.71H76.74a22.44,22.44,0,0,0,.26,3.27c.06.31.11.61.18.88a15,15,0,0,0,1.29-3.3l.58.34a14.86,14.86,0,0,1-1.6,3.82,5.38,5.38,0,0,0,.28.63c.32.52.61.79.86.79s.41-.57.57-1.72l.57.41c-.25,1.39-.61,2.1-1.06,2.1S77.78,161.68,77.36,161Zm-1.78-.82a36.13,36.13,0,0,1-4,.93l-.17-.72a25.75,25.75,0,0,0,4.12-.92Zm-.28-4.36v3.08H71.93v-3.08Zm-.65.68H72.59v1.74h2.05Zm10.87-2.77h3.36v.71H82.08v2.25a13.79,13.79,0,0,1-.94,5.33l-.54-.53a12.28,12.28,0,0,0,.81-4.79v-3h3.4a6.93,6.93,0,0,0-.5-.91l.72-.14A8.16,8.16,0,0,1,85.51,153.76Zm.56,7.14a31,31,0,0,0,1.49-5.32l.65.19a32.48,32.48,0,0,1-1.42,5.12h1.93v.71H82.25v-.71Zm-1.83-1.12-.62.17a30.28,30.28,0,0,0-.94-3.67l.58-.2A31.65,31.65,0,0,1,84.24,159.78Zm1.63-.6-.63.16a34,34,0,0,0-.8-3.78l.58-.2C85.33,156.48,85.61,157.76,85.87,159.19Zm5.52-3.66V154q-.61.11-1.24.18l-.13-.67a13.36,13.36,0,0,0,3-.63l.23.68c-.38.12-.77.22-1.18.31v1.6h1.13v.7H92v.64a21.45,21.45,0,0,1,1.33,1.71l-.37.62c-.37-.67-.69-1.19-1-1.59V162h-.64v-4.42a11.12,11.12,0,0,1-1.26,2.58l-.29-.84a8.57,8.57,0,0,0,1.5-3.08H90.07v-.7Zm4.44-.56a15.54,15.54,0,0,0,.89-2.21l.62.24a11.7,11.7,0,0,1-.83,2h1.05v3.2h-1v2.71c0,.24.08.37.26.37h.4a.29.29,0,0,0,.28-.19,5.08,5.08,0,0,0,.15-1.36l.58.2a4.51,4.51,0,0,1-.29,1.74.67.67,0,0,1-.6.27h-.71c-.45,0-.67-.3-.67-.89v-2.86h-.84a4.94,4.94,0,0,1-1.69,3.93l-.35-.64a4.14,4.14,0,0,0,1.43-3.3h-.84V155Zm-.56-.34-.55.3a13.45,13.45,0,0,0-.82-1.76l.54-.28C94.73,153.41,95,154,95.27,154.62Zm1.69,1H94.3v1.91H97Zm4.47-1.85v-.89h.68v.89h2.39v-.9h.68v.9h2.09v.7h-2.09v.87h-.68v-.87h-2.39v.87h-.68v-.87H99.31v-.7Zm1.86,3.21v.48l0,.49h3.11c0,1.91-.16,3-.43,3.42a1.67,1.67,0,0,1-1.43.56c-.26,0-.56,0-.93,0l-.17-.66.94.05c.57,0,.94-.17,1.09-.45a7.51,7.51,0,0,0,.26-2.24h-2.54a4.54,4.54,0,0,1-.76,1.85,5.28,5.28,0,0,1-2.63,1.62l-.35-.61a5.07,5.07,0,0,0,2.51-1.49,3.82,3.82,0,0,0,.57-1.37H100v-.65h2.57c0-.16,0-.33,0-.49V157Zm3.83.59h-.65v-1.13h-6.35v1.14h-.65v-1.84h7.66Zm4.66-4.69a6.3,6.3,0,0,1-.35.77h4v.58a8.22,8.22,0,0,1-2.15,1.91,11,11,0,0,0,3.47.94l-.3.68a10.74,10.74,0,0,1-3.88-1.21,13.8,13.8,0,0,1-3.92,1.23l-.3-.69a13.83,13.83,0,0,0,3.5-1,9.58,9.58,0,0,1-1.43-1.14,7.86,7.86,0,0,1-1.15.94l-.4-.59a5.29,5.29,0,0,0,2.24-2.55Zm.87,4.39a7.65,7.65,0,0,1-.09,1.15h3.23a6.67,6.67,0,0,1-.42,3.06,1.67,1.67,0,0,1-1.38.5c-.29,0-.65,0-1.07,0l-.17-.66,1.08.05c.55,0,.89-.14,1-.38a5.25,5.25,0,0,0,.25-1.88H112.4a4.39,4.39,0,0,1-.29.76,5.42,5.42,0,0,1-3.23,2.25l-.44-.6a5.43,5.43,0,0,0,3-1.84,3.29,3.29,0,0,0,.28-.57H109v-.66h2.92a5.8,5.8,0,0,0,.11-1.15Zm1.83-2.94H111l-.12.16a8.66,8.66,0,0,0,1.7,1.27A8.25,8.25,0,0,0,114.48,154.32Zm5.36,6.31a8.63,8.63,0,0,1,.79,1l-.46.42a9.5,9.5,0,0,0-.78-1,8.08,8.08,0,0,0-1-1l.41-.42A7.49,7.49,0,0,1,119.84,160.63Z" data-name="货物或应税劳务、服务名称" id="货物或应税劳务_服务名称" transform="translate(-30 -10)"/>
        <path d="M506.12,362.36a10.24,10.24,0,0,0-.87,2.09,8.72,8.72,0,0,0,0,5.24,10.73,10.73,0,0,0,.87,2.09h-.64a9.28,9.28,0,0,1-.94-2.08,8.79,8.79,0,0,1,0-5.27,8.89,8.89,0,0,1,.94-2.08Zm2.44,6.7V366h5.78v3.07H511.8v.71h3.68v.65H511.8v1.26h-.68v-1.26H507.4v-.65h3.71v-.71Zm-.56-5.26v-.64h3a5.55,5.55,0,0,0-.25-.68l.71-.12c.09.24.17.5.27.8h3.12v.64h-1.36l-.33.94h2.16v.63h-7.82v-.63h2.19l-.34-.94Zm5.69,2.79h-4.47v.65h4.47Zm-4.47,1.86h4.47v-.65h-4.47Zm3.3-3.71.32-.94h-2.78l.34.94Zm4.88-2.38a9.71,9.71,0,0,1,.94,2.08,8.79,8.79,0,0,1,0,5.27,10.18,10.18,0,0,1-.94,2.08h-.64a11.33,11.33,0,0,0,.87-2.09,8.72,8.72,0,0,0,0-5.24,10.78,10.78,0,0,0-.87-2.09Zm-22.82,3.89a.58.58,0,0,1,.17.43.62.62,0,0,1-.17.43.53.53,0,0,1-.4.18.52.52,0,0,1-.4-.18.61.61,0,0,1-.16-.43.58.58,0,0,1,.16-.43.49.49,0,0,1,.4-.19A.51.51,0,0,1,494.58,366.26Zm0,3.69a.58.58,0,0,1,.17.43.62.62,0,0,1-.17.43.53.53,0,0,1-.4.18.52.52,0,0,1-.4-.18.61.61,0,0,1-.16-.43.58.58,0,0,1,.16-.43.49.49,0,0,1,.4-.19A.51.51,0,0,1,494.58,369.95Zm-27.08-6.58c-.08.34-.17.67-.26,1h1.68V365H467a11.19,11.19,0,0,1-.86,1.9l-.54-.37a11.66,11.66,0,0,0,1.24-3.33Zm1.27,3V367h-1v1.27h1.27V369h-1.27v2.37a7.12,7.12,0,0,0,1.26-.66l.11.65a8.28,8.28,0,0,1-2,.87l-.28-.63q.28-.11.28-.3V369H465.9v-.68h1.27V367h-.59v-.66Zm1.93-1.07-.53.29a11.48,11.48,0,0,0-.86-1.69l.56-.29A17.17,17.17,0,0,1,470.69,365.32Zm1.24-2.08V366h1.72v5.39c0,.65-.27,1-.8,1h-.92l-.17-.7.88,0c.23,0,.35-.16.35-.47V370.2h-2.8v2.23h-.66V366h1.74v-2.79Zm1.06,3.48h-2.8v1.12H473Zm-2.8,2.85H473v-1.11h-2.8Zm3.7-5.76a10.39,10.39,0,0,1-.88,1.8l-.54-.3a10.63,10.63,0,0,0,.87-1.78ZM475,367l-.2-.72a8.36,8.36,0,0,0,2-3.14l.64.14c-.11.3-.23.6-.37.89h2.27a6.94,6.94,0,0,0-.45-.93l.68-.12a9.86,9.86,0,0,1,.41,1h2.67v.61h-2.79v.74h2.38v.57h-2.38v.71h2.4v.57h-2.4v.76h2.93v.62H476.1v-2.94A10.6,10.6,0,0,1,475,367Zm7.24,5.48h-.65V372h-4.86v.49h-.65v-2.95h6.16Zm-3-7.7H476.8l-.06.11v.63h2.53Zm0,1.31h-2.53v.71h2.53Zm0,1.28h-2.53v.76h2.53Zm2.35,4v-1.18h-4.86v1.18Zm6.54-6.66a7.6,7.6,0,0,0-.67-1.28l.62-.25a9,9,0,0,1,.72,1.53h3.43v.7h-4.83l-.08,1.8v0h3.81a25.46,25.46,0,0,1-.21,3.84c-.18.86-.63,1.3-1.36,1.33-.29,0-.65,0-1.05,0l-.2-.66,1.19,0c.47,0,.75-.38.86-1.09.06-.42.08-1.34.1-2.73h-3.21a7.34,7.34,0,0,1-.68,2.22,8.22,8.22,0,0,1-1.88,2.37l-.48-.5a7.73,7.73,0,0,0,1.94-2.52,8,8,0,0,0,.53-2.6c0-.64,0-1.12.06-1.46H484.2v-.7Z" data-name="销售方(章)" id="销售方_章_" transform="translate(-30 -10)"/>
        <path d="M347.1,363.62v.71h-1.53V367h2v.7h-2v4.47h-.67v-4.47h-2.65a8.9,8.9,0,0,1-.53,2.58,4,4,0,0,1-1.73,2l-.36-.63a3.71,3.71,0,0,0,1.56-1.85,9.39,9.39,0,0,0,.39-2.08h-2.12V367h2.15c0-.13,0-.25,0-.35v-2.32H340v-.71Zm-4.8,3c0,.12,0,.24,0,.35h2.6v-2.67H342.3Zm14.45-3.24V364H354v.81h2.1v2.24h-6.81v-2.24h2.1V364h-2.77v-.64Zm-.15,5.77v.64h-3.5v1.57a.74.74,0,0,1-.83.84h-.83l-.13-.65c.26,0,.5,0,.74,0a.35.35,0,0,0,.39-.39v-1.41h-3.7v-.64Zm-5.19,1.43a8.78,8.78,0,0,1-2.26,1.52l-.39-.56a9.29,9.29,0,0,0,2.23-1.39Zm4.33-2.77v.61h-6.08v-.61Zm-4.36-2.38h-1.47v1h1.47Zm2-1.41H352v.81h1.37Zm0,1.41H352v1h1.37Zm2.09,0H354v1h1.47Zm1.22,6.18-.46.5a12.18,12.18,0,0,0-2.1-1.53l.44-.45A14.1,14.1,0,0,1,356.68,371.63Zm5.43-6.36a9.3,9.3,0,0,0,4,6.28l-.43.64a9.87,9.87,0,0,1-3.79-5.45A9.38,9.38,0,0,1,358,372.2l-.4-.65a8.26,8.26,0,0,0,3.91-6.92c0-.69,0-1.22,0-1.6h.67C362.17,363.9,362.15,364.64,362.11,365.27Zm6.77,0a.58.58,0,0,1,.17.43.62.62,0,0,1-.17.43.53.53,0,0,1-.4.18.52.52,0,0,1-.4-.18.61.61,0,0,1-.16-.43.58.58,0,0,1,.16-.43.49.49,0,0,1,.4-.19A.51.51,0,0,1,368.88,365.3Zm0,3.69a.58.58,0,0,1,.17.43.62.62,0,0,1-.17.43.53.53,0,0,1-.4.18.52.52,0,0,1-.4-.18.61.61,0,0,1-.16-.43.58.58,0,0,1,.16-.43.49.49,0,0,1,.4-.19A.51.51,0,0,1,368.88,369Z" id="开票人" transform="translate(-30 -10)"/>
        <path d="M195.24,364.07h5.39v3.19H197a6.66,6.66,0,0,1-.46.69h4.11v.52a5.46,5.46,0,0,1-1.82,1.59,11,11,0,0,0,3,.48l-.16.67a10.57,10.57,0,0,1-3.59-.77,12.51,12.51,0,0,1-3.92.81l-.27-.64a13.25,13.25,0,0,0,3.41-.54,7.56,7.56,0,0,1-1.68-1.21,8.71,8.71,0,0,1-1.28.8L194,369a5.28,5.28,0,0,0,2.32-1.79h-1.17v-3a7.18,7.18,0,0,1-1.06,1.09l-.39-.56a5.85,5.85,0,0,0,1.93-2.86l.65.12c-.07.24-.16.48-.25.72h5.36v.64h-5.67Q195.47,363.74,195.24,364.07Zm4.75,1.31v-.74h-4.23v.74Zm0,.54h-4.23v.75H200Zm-.16,2.61h-3.77a7.79,7.79,0,0,0,2,1.24A5.36,5.36,0,0,0,199.83,368.54Zm6,2.7h-.63v-5.05A12.73,12.73,0,0,1,204,369l-.28-.74a10.89,10.89,0,0,0,1.39-3.57H203.9V364h1.27v-2h.63v2h1.08v.7H205.8v.66c.44.55.88,1.18,1.34,1.89l-.37.62c-.38-.71-.7-1.28-1-1.71Zm1.17-.07-.36-.63a8.45,8.45,0,0,0,4.84-4.48l.56.32a10.16,10.16,0,0,1-1.56,2.36,15,15,0,0,1,1.69,1.92l-.48.52a13.54,13.54,0,0,0-1.62-2A8.73,8.73,0,0,1,207,371.17Zm2.43-8.07a6.85,6.85,0,0,0-.44-1l.68-.12a11,11,0,0,1,.4,1.12h2v.66h-2.51a9.84,9.84,0,0,1-1.33,2.09l1.73-.13a8.38,8.38,0,0,0,.63-1.14l.53.31a7.59,7.59,0,0,1-4,4.1l-.36-.61a6.63,6.63,0,0,0,2.79-2l-2.05.11-.14-.6.13-.06a6.54,6.54,0,0,0,1.42-2h-1.78v-.66Zm5.95,1.18a.58.58,0,0,1,.17.43.62.62,0,0,1-.17.43.53.53,0,0,1-.4.18.52.52,0,0,1-.4-.18.61.61,0,0,1-.16-.43.58.58,0,0,1,.16-.43.49.49,0,0,1,.4-.19A.51.51,0,0,1,215.35,364.28Zm0,3.69a.58.58,0,0,1,.17.43.62.62,0,0,1-.17.43.53.53,0,0,1-.4.18.52.52,0,0,1-.4-.18.61.61,0,0,1-.16-.43.58.58,0,0,1,.16-.43.49.49,0,0,1,.4-.19A.51.51,0,0,1,215.35,368Z" id="复核" transform="translate(-30 -10)"/>
        <path d="M44.9,369.59c.13-.06.2-.14.2-.24v-5.53h.64v5.51c.46-.14.92-.31,1.38-.5V363h.65v9.14h-.65v-2.61c-.64.25-1.32.47-2,.68Zm3.47-1.87-.41-.55a9.72,9.72,0,0,0,1.53-4.25l.66.12c-.09.51-.19,1-.3,1.44H52.9v.72h-.79A9.07,9.07,0,0,1,51,369.45a11.51,11.51,0,0,0,2.11,2.21l-.45.59a12,12,0,0,1-2.06-2.17,7.63,7.63,0,0,1-2.34,2.1l-.38-.66a6.52,6.52,0,0,0,2.3-2,12.8,12.8,0,0,1-1.27-2.59A7.62,7.62,0,0,1,48.37,367.72Zm.94-1.61a12.07,12.07,0,0,0,1.28,2.72,8.3,8.3,0,0,0,.9-3.63H49.64C49.53,365.52,49.42,365.82,49.3,366.11Zm5.87,3.35a7,7,0,0,1-.85,2l-.5-.35a5.49,5.49,0,0,0,.82-1.8Zm.66-5.59v-.92h.62v.92h1.69v.65H56.46v.89h1.48V366H54.21v-.63h1.62v-.89H53.89v-.65Zm2.41,4.36v.64h-1.8v2.52a.7.7,0,0,1-.77.8H54.9l-.13-.66a5.64,5.64,0,0,0,.7.05.32.32,0,0,0,.36-.35v-2.36H54v-.64Zm-.6-1.4v.64H54.52v-.64Zm.45,3.93-.51.25a10.8,10.8,0,0,0-.61-1.55l.53-.19A12.53,12.53,0,0,1,58.1,370.76ZM60.28,366c0,.68,0,1.3-.09,1.87a7.81,7.81,0,0,0,2.06,3.8l-.44.55A8.55,8.55,0,0,1,60,369.1c0,.07,0,.14,0,.22A5,5,0,0,1,58,372.25l-.4-.53a4.68,4.68,0,0,0,1.73-2.5,13.1,13.1,0,0,0,.33-3.23Zm-.61-2.89c-.06.52-.13,1-.21,1.44h2.42V365c-.12.86-.28,1.7-.48,2.54l-.61-.19a15.78,15.78,0,0,0,.46-2.14H59.31a6.84,6.84,0,0,1-.83,2.06l-.5-.39A9.37,9.37,0,0,0,59.06,363Zm7.79,2.12a9.3,9.3,0,0,0,4,6.28l-.43.64a9.87,9.87,0,0,1-3.79-5.45,9.38,9.38,0,0,1-3.89,5.46l-.4-.65a8.26,8.26,0,0,0,3.91-6.92c0-.69,0-1.22,0-1.6h.67C67.52,363.84,67.5,364.58,67.46,365.21Zm6.87,0a.58.58,0,0,1,.17.43.62.62,0,0,1-.17.43.53.53,0,0,1-.4.18.52.52,0,0,1-.4-.18.61.61,0,0,1-.16-.43.58.58,0,0,1,.16-.43.49.49,0,0,1,.4-.19A.51.51,0,0,1,74.33,365.24Zm0,3.69a.58.58,0,0,1,.17.43.62.62,0,0,1-.17.43.53.53,0,0,1-.4.18.52.52,0,0,1-.4-.18.61.61,0,0,1-.16-.43.58.58,0,0,1,.16-.43.49.49,0,0,1,.4-.19A.51.51,0,0,1,74.33,368.93Z" id="收款人" transform="translate(-30 -10)"/>
        <path d="M374.59,344.57l-.47.51a11,11,0,0,0-1.51-1.51l.47-.49A10.12,10.12,0,0,1,374.59,344.57Zm.23,1.55a35.28,35.28,0,0,1-1.38,3.59l-.66-.31a32.5,32.5,0,0,0,1.45-3.54Zm.08-3.93-.47.51a9.8,9.8,0,0,0-1.6-1.5l.48-.5A12.19,12.19,0,0,1,374.91,342.19Zm2.82.06a14.31,14.31,0,0,0-.62-1.56l.62-.19a12.61,12.61,0,0,1,.6,1.59l-.38.16h2.73V343h-2.37v2.42h2.12v.7h-2.12v2.65h2.54v.72H375v-.72h2.61v-2.65h-2.13v-.7h2.13V343h-2.38v-.72Zm-1.6-32.88c-.14.24-.28.46-.43.68h3.73v.55a8.35,8.35,0,0,1-2.06,2,12.64,12.64,0,0,0,3.51,1l-.28.65a12.12,12.12,0,0,1-3.85-1.25,12.91,12.91,0,0,1-4,1.33l-.28-.64a12.39,12.39,0,0,0,3.59-1.08,7.41,7.41,0,0,1-1.46-1.26,9.74,9.74,0,0,1-1.29,1.08l-.42-.56a8.12,8.12,0,0,0,2.55-2.6Zm3.47,9.21H379v-.44h-4.51v.44h-.63v-4.4h5.78Zm-3.21-2.72v-1.07h-1.93v1.07Zm0,1.65v-1.07h-1.93v1.07Zm.33-5.29a8.46,8.46,0,0,0,1.9-1.54h-3.39l-.18.2A6.77,6.77,0,0,0,376.71,312.22Zm.29,3.63h2v-1.07h-2Zm2,1.65v-1.07h-2v1.07Z" id="备注" transform="translate(-30 -10)"/>
        <path d="M67,345v.69H65.5v2.62h2V349h-2v4.39h-.67V349H62.18a8.59,8.59,0,0,1-.53,2.53,3.9,3.9,0,0,1-1.73,1.93l-.36-.61a3.66,3.66,0,0,0,1.56-1.81,9.07,9.07,0,0,0,.39-2H59.39v-.68h2.15c0-.13,0-.25,0-.35v-2.28H59.89V345Zm-4.8,3c0,.12,0,.24,0,.35h2.6v-2.62H62.24Zm6.66,5.55-.49-.48a7.79,7.79,0,0,0,1.14-4.33v-3.1h3a10.88,10.88,0,0,0-.53-1.16l.71-.12q.25.56.5,1.28h2.9V349H70.2A8.67,8.67,0,0,1,68.9,353.54Zm1.3-7.2v1.93h5.24v-1.93Zm10.2-1.53a7.69,7.69,0,0,1-2.48,2.91l-.19-.71a6.72,6.72,0,0,0,2.07-2.49Zm.43,2.26a7.93,7.93,0,0,1-1,1.58v4.85h-.65v-4.13a11.88,11.88,0,0,1-1.2,1l-.19-.71a7.88,7.88,0,0,0,2.45-2.92Zm5.22.5v.7H84.57v4.33a.78.78,0,0,1-.89.86H82.33l-.14-.7c.44,0,.85,0,1.26,0s.45-.13.45-.39v-4.15H81v-.7Zm-.4-2.51v.7H81.26v-.7Zm2.11.5v-.7h5.47v.47c-.17.86-.35,1.6-.51,2.23h1.85V348a6.74,6.74,0,0,1-1.73,3.43,12.18,12.18,0,0,0,2.45,1.49l-.43.63a11.37,11.37,0,0,1-2.53-1.64,9.66,9.66,0,0,1-3,1.68l-.39-.66a9.94,9.94,0,0,0,2.83-1.52,8.42,8.42,0,0,1-1.9-2.93,8,8,0,0,1-2.36,5L87,353q2.28-2,2.32-6.51v-.91Zm6.12,2.63h-2a25.11,25.11,0,0,0,.61-2.63H90v.91c0,.16,0,.31,0,.47a7.44,7.44,0,0,0,2.27,4A6,6,0,0,0,93.87,348.2Zm4.59-2v3.22a7,7,0,0,1-.46,2.66,3.1,3.1,0,0,1-1.38,1.45l-.36-.59a2.75,2.75,0,0,0,1.27-1.31,6.62,6.62,0,0,0,.36-2.21v-3.22ZM99.77,351h-.59v-5.55h-2V351H96.6v-6.22h3.17Zm.28,1.91-.47.5a9.67,9.67,0,0,0-1.23-1.69l.42-.45A11.43,11.43,0,0,1,100,352.95Zm1.41-3.73v3.37a7.07,7.07,0,0,0,1.25-.68l.12.63a8,8,0,0,1-1.94,1l-.28-.63a.33.33,0,0,0,.21-.31v-3.33h-.66v-.69h.66v-4.09h.64v4.09h3v.69h-1.66a8.4,8.4,0,0,0,1.83,3.64l-.45.55a9.47,9.47,0,0,1-2-4.2Zm2.91-3.89a6.9,6.9,0,0,1-2.26,2.48l-.36-.55a6.3,6.3,0,0,0,2.12-2.37Zm1.12,3.66v-.68h8.24V349h-5.47l-.31,1.16h4.48A7.1,7.1,0,0,1,112,353a1.49,1.49,0,0,1-1.27.45,11.14,11.14,0,0,1-1.22-.06l-.22-.65q.73.06,1.29.06c.5,0,.8-.11.92-.33a5.64,5.64,0,0,0,.25-1.66h-4.6l.43-1.8Zm6.81-4.21v2.67h-5.37v-2.67Zm-.68.64h-4v1.39h4Zm4.76,1.55a.57.57,0,0,1,.17.43.6.6,0,0,1-.17.43.53.53,0,0,1-.4.18.52.52,0,0,1-.4-.18.59.59,0,0,1-.16-.43.56.56,0,0,1,.16-.43.5.5,0,0,1,.4-.19A.51.51,0,0,1,116.37,347Zm0,3.62a.57.57,0,0,1,.17.43.6.6,0,0,1-.17.43.53.53,0,0,1-.4.18.52.52,0,0,1-.4-.18.59.59,0,0,1-.16-.43.56.56,0,0,1,.16-.43.5.5,0,0,1,.4-.19A.51.51,0,0,1,116.37,350.6Z" id="销售方-开户行及账号" transform="translate(-30 -10)"/>
        <path d="M62.48,337.27a15.17,15.17,0,0,1-2.72,1.09l-.17-.73c.39-.09.77-.2,1.16-.33v-3.62h-1V333h1v-2.63h.65V333h1v.71h-1v3.38c.37-.15.73-.33,1.08-.51ZM67.59,336c-.09.43-.49.65-1.17.65h-.06l-.18-.72.38,0a.42.42,0,0,0,.46-.34,21.75,21.75,0,0,0,.08-2.4l-1.34.45v3.85h-.64v-3.63l-1.34.45v3.95a.42.42,0,0,0,.48.47h2.58a.43.43,0,0,0,.4-.2,4.34,4.34,0,0,0,.21-1.49l.61.21a4.13,4.13,0,0,1-.37,1.87.9.9,0,0,1-.74.3h-2.9c-.61,0-.92-.35-.92-1v-3.88l-.77.26v-.71l.77-.26v-2.5h.64v2.28l1.34-.46v-2.86h.64v2.64l2-.67A28.12,28.12,0,0,1,67.59,336Zm8.46,1.41a20.28,20.28,0,0,1-3,.93l-.17-.77q.63-.12,1.24-.27v-3.67H73v-.71h1.15v-2.59h.68v2.59h1.13v.71H74.81v3.47c.42-.13.83-.27,1.24-.44Zm3.31-7.15v3.26H81.1v.7H79.36v4.27h2v.71H75.59v-.71h1.06V332.4h.66v6.07h1.38v-8.23Zm5.06,7.92a8.7,8.7,0,0,1,.79,1l-.46.43a9.58,9.58,0,0,0-.78-1,8.12,8.12,0,0,0-1-1l.41-.43A7.52,7.52,0,0,1,84.42,338.16Zm8.37-1.43v.87h-.66v-5.93H95v-1.39h.67v1.39h3v5.07h-3V338c0,.5.2.75.61.75h2.09a.68.68,0,0,0,.5-.17,3.12,3.12,0,0,0,.19-1.21l.62.23a3.28,3.28,0,0,1-.32,1.58,1.2,1.2,0,0,1-.89.26H96.16c-.75,0-1.12-.45-1.12-1.33v-1.36Zm0-4.38v1.5H95v-1.5Zm0,3.7H95v-1.53H92.79Zm5.24-3.7H95.71v1.5H98Zm0,3.7v-1.53H95.71v1.53Zm9.54-2.69v4.54c.31-.29.66-.63,1-1l.17.77a12.21,12.21,0,0,1-1.78,1.57l-.26-.65a.62.62,0,0,0,.2-.43v-4.07h-1.35v-.7Zm.69-1.45-.45.51a10.43,10.43,0,0,0-1.58-1.58l.46-.5A10.94,10.94,0,0,1,108.26,331.92Zm2.76,1.3v-1.61a20,20,0,0,1-2.14.11l-.19-.66a13.59,13.59,0,0,0,4.72-.7l.32.62a9.62,9.62,0,0,1-2,.54v1.7h2.37v.71h-2.37v1.64h1.74v4h-.66V339H110v.51h-.65v-4H111v-1.64h-2.51v-.71Zm1.75,5.13v-2.12H110v2.12Zm3.46-5.58a.59.59,0,0,1,.17.44.63.63,0,0,1-.17.44.53.53,0,0,1-.4.18.51.51,0,0,1-.4-.18.62.62,0,0,1-.16-.44.59.59,0,0,1,.16-.44.49.49,0,0,1,.4-.19A.51.51,0,0,1,116.24,332.78Zm0,3.73a.59.59,0,0,1,.17.44.63.63,0,0,1-.17.44.53.53,0,0,1-.4.18.51.51,0,0,1-.4-.18.62.62,0,0,1-.16-.44.59.59,0,0,1,.16-.44.49.49,0,0,1,.4-.19A.51.51,0,0,1,116.24,336.51Z" id="销售方-地址电话" transform="translate(-30 -10)"/>
        <path d="M61.89,316.24a18.55,18.55,0,0,1-1.32,3.1c.39-.05.77-.11,1.16-.19l.52-1.18.6.24a26.56,26.56,0,0,1-2,3.76,12.66,12.66,0,0,0,1.81-.61V322a11.55,11.55,0,0,1-2.59.78l-.18-.65a.85.85,0,0,0,.3-.21,11.31,11.31,0,0,0,1.23-2.11L60,320l-.17-.67a.8.8,0,0,0,.28-.27A17.51,17.51,0,0,0,61.28,316Zm.83,7.64a15.39,15.39,0,0,1-2.83.9l-.08-.7a13.78,13.78,0,0,0,2.92-.89Zm3.48,1.3-.17-.69.76,0c.24,0,.37-.15.37-.43v-5.79H65.77c0,.42-.07.81-.13,1.16A26.78,26.78,0,0,1,67,322.34l-.51.4c-.26-.75-.58-1.54-1-2.4a6.26,6.26,0,0,1-1.16,2.49l-.42-.56a6.14,6.14,0,0,0,1.1-2.75c.06-.37.09-.78.13-1.21h-1.4v6.93h-.62V317.6h2.06c0-.52,0-1.07,0-1.65h.64c0,.6,0,1.15,0,1.65h2v6.65c0,.62-.27.93-.78.93Zm4.33-6.49v-1.48q-.61.11-1.24.18l-.13-.67a13.36,13.36,0,0,0,3-.63l.23.68c-.38.12-.77.22-1.18.31v1.6H72.3v.7H71.18V320a21.45,21.45,0,0,1,1.33,1.71l-.37.62c-.37-.67-.69-1.19-1-1.59v4.38h-.64v-4.42a11.12,11.12,0,0,1-1.26,2.58l-.29-.84a8.57,8.57,0,0,0,1.5-3.08H69.21v-.7Zm4.44-.56a15.54,15.54,0,0,0,.89-2.21l.62.24a11.7,11.7,0,0,1-.83,2h1.05v3.2h-1V324c0,.24.08.37.26.37h.4a.29.29,0,0,0,.28-.19,5.08,5.08,0,0,0,.15-1.36l.58.2a4.51,4.51,0,0,1-.29,1.74.67.67,0,0,1-.6.27h-.71c-.45,0-.67-.3-.67-.89v-2.86h-.84a4.94,4.94,0,0,1-1.69,3.93l-.35-.64a4.14,4.14,0,0,0,1.43-3.3h-.84v-3.2Zm-.56-.34-.55.3a13.45,13.45,0,0,0-.82-1.76l.54-.28C73.87,316.57,74.15,317.16,74.41,317.78Zm1.69,1H73.44v1.91H76.1Zm6.6-.55a9.3,9.3,0,0,0,4,6.28l-.43.64a9.87,9.87,0,0,1-3.79-5.45,9.38,9.38,0,0,1-3.89,5.46l-.4-.65a8.26,8.26,0,0,0,3.91-6.92c0-.69,0-1.22,0-1.6h.67C82.76,316.84,82.74,317.59,82.7,318.22Zm6.76.83v4.45c.29-.28.61-.62.94-1l.17.77a12.55,12.55,0,0,1-1.69,1.55l-.26-.65a.57.57,0,0,0,.19-.42v-4H87.5V319Zm.67-1.45-.45.5a10.39,10.39,0,0,0-1.54-1.54l.46-.49A11.44,11.44,0,0,1,90.13,317.59Zm2.53,4.6A13.76,13.76,0,0,1,91,325.26l-.58-.46a11.43,11.43,0,0,0,1.61-2.91Zm2.65-5.63v4.71H91.1v-4.71Zm-.66.7h-2.9v3.31h2.9Zm1.29,7.52-.57.43a23.77,23.77,0,0,0-1.63-3l.53-.37A24.29,24.29,0,0,1,95.95,324.78Zm1.29-5.21v-3.21h3.9v3.21h-1.8c0,.44,0,.85-.08,1.23h2a21.79,21.79,0,0,1-.14,3.26c-.09.67-.53,1-1.33,1l-.62,0-.16-.65c.27,0,.5,0,.69,0a.73.73,0,0,0,.81-.66,19.22,19.22,0,0,0,.1-2.3h-1.4A7.88,7.88,0,0,1,98.8,323a5.29,5.29,0,0,1-1.68,2.2l-.42-.57a4.43,4.43,0,0,0,1.5-1.92,6.24,6.24,0,0,0,.31-1.22H96.89v-.68H98.6c0-.38.07-.79.09-1.23ZM100.5,317H97.87v1.89h2.63Zm2.31-.17v6.28h-.64v-6.28Zm-.24,8.27-.15-.7c.43,0,.83.05,1.22.05s.43-.18.43-.54V316h.66v8.12c0,.67-.29,1-.86,1Zm3.4-4.51v-.7h8.24v.7h-5.47l-.31,1.18h4.48a7.36,7.36,0,0,1-.42,2.89,1.48,1.48,0,0,1-1.27.45,10.94,10.94,0,0,1-1.22-.06l-.22-.67q.73.06,1.29.06c.5,0,.8-.11.92-.33a5.85,5.85,0,0,0,.25-1.69h-4.6l.43-1.84Zm6.81-4.29V319h-5.37v-2.72Zm-.68.66h-4v1.41h4Zm4.11,1.15a.58.58,0,0,1,.17.43.62.62,0,0,1-.17.43.53.53,0,0,1-.4.18.52.52,0,0,1-.4-.18.61.61,0,0,1-.16-.43.58.58,0,0,1,.16-.43.49.49,0,0,1,.4-.19A.51.51,0,0,1,116.22,318.12Zm0,3.69a.58.58,0,0,1,.17.43.62.62,0,0,1-.17.43.53.53,0,0,1-.4.18.52.52,0,0,1-.4-.18.61.61,0,0,1-.16-.43.58.58,0,0,1,.16-.43.49.49,0,0,1,.4-.19A.51.51,0,0,1,116.22,321.82Z" id="销售方-纳税人识别号" transform="translate(-30 -10)"/>
        <path d="M61.94,309.64h-.66v-3.56c-.57.2-1.16.38-1.81.55l-.35-.7a15.19,15.19,0,0,0,4-1.41,11.11,11.11,0,0,0-1.65-1.21l.57-.39a13.47,13.47,0,0,1,1.64,1.27,5.84,5.84,0,0,0,2-2.16H62.29a9.29,9.29,0,0,1-2.38,1.7l-.44-.63a6.46,6.46,0,0,0,3.17-2.71l.72.09a7,7,0,0,1-.5.86h3.58V302a7.52,7.52,0,0,1-3.57,3.39H66.7v4.26H66V309h-4.1Zm4.1-3.58h-4.1v2.28H66Zm40.46-2.9v-1.44c-.39.06-.77.12-1.17.16l-.13-.69a13.23,13.23,0,0,0,3-.62l.23.69c-.4.12-.84.24-1.31.34v1.55h1.13v.7h-1.13v.55a19.61,19.61,0,0,1,1.37,1.47l-.37.61c-.39-.61-.72-1.08-1-1.43v4.56h-.63V305a10.75,10.75,0,0,1-1.27,2.69l-.28-.81a8.27,8.27,0,0,0,1.49-3.07h-1.27v-.7Zm3.33,1.78a13.9,13.9,0,0,1-1.13,3.48l-.57-.39a12.2,12.2,0,0,0,1.08-3.22Zm-.94-.73-.4-.57a7.93,7.93,0,0,0,1.27-3.27l.65.09a11.58,11.58,0,0,1-.32,1.33h3v.47a18.87,18.87,0,0,1-.43,2l-.64-.21a11,11,0,0,0,.41-1.58h-2.62A7.67,7.67,0,0,1,108.88,304.2Zm.61,5.39-.14-.7a7.32,7.32,0,0,0,.79.05c.22,0,.34-.15.34-.44v-5.15h.68v5.34c0,.61-.27.91-.79.91Zm3.93-1.37-.61.29a31.22,31.22,0,0,0-1.06-3.57l.6-.21A29.71,29.71,0,0,1,113.42,308.21Zm2.94-6.05a.58.58,0,0,1,.17.43.62.62,0,0,1-.17.43.53.53,0,0,1-.4.18.52.52,0,0,1-.4-.18.61.61,0,0,1-.16-.43.58.58,0,0,1,.16-.43.49.49,0,0,1,.4-.19A.51.51,0,0,1,116.36,302.16Zm0,3.69a.58.58,0,0,1,.17.43.62.62,0,0,1-.17.43.53.53,0,0,1-.4.18.52.52,0,0,1-.4-.18.61.61,0,0,1-.16-.43.58.58,0,0,1,.16-.43.49.49,0,0,1,.4-.19A.51.51,0,0,1,116.36,305.85Z" id="销售方-名称" transform="translate(-30 -10)"/>
        <path d="M40.38,308.73c-.08.34-.17.67-.26,1H41.8v.69H39.9a11.19,11.19,0,0,1-.86,1.9l-.54-.37a11.66,11.66,0,0,0,1.24-3.33Zm1.27,3v.66h-1v1.27H42v.68H40.69v2.37a7.12,7.12,0,0,0,1.26-.66l.11.65a8.28,8.28,0,0,1-2,.87l-.28-.63q.28-.11.28-.3v-2.3H38.79v-.68h1.27V312.4h-.59v-.66Zm1.93-1.07L43,311a11.49,11.49,0,0,0-.86-1.69l.56-.29A17.17,17.17,0,0,1,43.57,310.68Zm1.24-2.08v2.79h1.72v5.39c0,.65-.27,1-.8,1h-.92l-.17-.7.88,0c.23,0,.35-.16.35-.47v-1.06h-2.8v2.23h-.66v-6.39h1.74V308.6Zm1.06,3.48h-2.8v1.12h2.8Zm-2.8,2.85h2.8v-1.11h-2.8Zm3.7-5.76a10.39,10.39,0,0,1-.88,1.8l-.54-.3a10.62,10.62,0,0,0,.87-1.78Zm-7.91,17.76-.2-.72a8.36,8.36,0,0,0,2-3.14l.64.14c-.11.3-.23.6-.37.89h2.27a6.93,6.93,0,0,0-.45-.93l.68-.12a9.86,9.86,0,0,1,.41,1h2.67v.61H43.76v.74h2.38V326H43.76v.71h2.4v.57h-2.4v.76h2.93v.62H39.94v-2.94A10.61,10.61,0,0,1,38.86,326.93Zm7.24,5.48h-.65v-.49H40.59v.49h-.65v-2.95H46.1Zm-3-7.7H40.64l-.06.11v.63H43.1Zm0,1.31H40.57v.71H43.1Zm0,1.28H40.57v.76H43.1Zm2.35,4v-1.18H40.59v1.18Zm-6.7,8.34v.7h2.56c0,.34,0,.83-.06,1.46a8,8,0,0,1-.53,2.6,7.73,7.73,0,0,1-1.94,2.52l.48.5A8.22,8.22,0,0,0,41.13,345a7.34,7.34,0,0,0,.68-2.22H45c0,1.39,0,2.31-.1,2.73-.11.71-.39,1.07-.86,1.09l-1.19,0,.2.66c.4,0,.76,0,1.05,0,.72,0,1.17-.47,1.36-1.33a25.47,25.47,0,0,0,.21-3.84H41.88v0l.08-1.8H46.8v-.7H43.37a9,9,0,0,0-.72-1.53l-.62.25a7.6,7.6,0,0,1,.67,1.28Z" id="销售方" transform="translate(-30 -10)"/>
        <path d="M457.54,282.28a10.24,10.24,0,0,0-.87,2.09,8.72,8.72,0,0,0,0,5.24,10.73,10.73,0,0,0,.87,2.09h-.64a9.28,9.28,0,0,1-.94-2.08,8.79,8.79,0,0,1,0-5.27,8.89,8.89,0,0,1,.94-2.08Zm3.34,2.87a13.36,13.36,0,0,1-1.73,4.6l-.57-.55a11.77,11.77,0,0,0,1.64-4.33Zm.13,6.36-.16-.76c.46,0,.9.06,1.31.06s.51-.19.51-.56v-7.73h.68v7.92c0,.71-.32,1.07-.94,1.07Zm6.09-2.17-.59.45a49,49,0,0,0-1.68-4.76l.6-.41Q466.52,287.34,467.1,289.35Zm6.51-.49v.7h-5.5v-.7Zm2.07-3.86H475v-1.5h-6V285h-.65v-2.18h7.32Zm-5.43,2h4.92c0,2.46-.17,3.85-.45,4.18a2,2,0,0,1-1.49.42h-.8l-.18-.68,1,0a1.24,1.24,0,0,0,1-.29,8.8,8.8,0,0,0,.29-3h-5.1c.39-1.41.68-2.66.87-3.74l.65.07c-.06.34-.13.67-.19,1h3.74v.69H470.6C470.49,286.11,470.37,286.56,470.25,287Zm7.73-4.69a9.71,9.71,0,0,1,.94,2.08,8.79,8.79,0,0,1,0,5.27,10.18,10.18,0,0,1-.94,2.08h-.64a11.33,11.33,0,0,0,.87-2.09,8.72,8.72,0,0,0,0-5.24,10.78,10.78,0,0,0-.87-2.09Z" id="小写" transform="translate(-30 -10)"/>
        <path d="M72.5,288.27l-.22-.77a11.62,11.62,0,0,0,2-4.09l.62.31a13.3,13.3,0,0,1-.72,1.94v7h-.68v-5.72A12.48,12.48,0,0,1,72.5,288.27Zm5.34-4.8a8.53,8.53,0,0,0,3,3.55l-.38.62a8.85,8.85,0,0,1-2.88-3.47,9.54,9.54,0,0,1-2.76,3.58l-.37-.62a9.13,9.13,0,0,0,2.83-3.66ZM76.71,287v1.52a5.83,5.83,0,0,1-1.35,4.19l-.5-.47a5.09,5.09,0,0,0,1.21-3.71V287Zm2.37,0v5.63h-.64v-5.63Zm4-.8v-1.48q-.61.11-1.24.18l-.13-.67a13.36,13.36,0,0,0,3-.63l.23.68c-.38.12-.77.22-1.18.31v1.6h1.13v.7H83.69v.64A21.45,21.45,0,0,1,85,289.2l-.37.62c-.37-.67-.69-1.19-1-1.59v4.38H83v-4.42a11.12,11.12,0,0,1-1.26,2.58l-.29-.84a8.57,8.57,0,0,0,1.5-3.08H81.73v-.7Zm4.44-.56a15.54,15.54,0,0,0,.89-2.21l.62.24a11.7,11.7,0,0,1-.83,2h1.05v3.2h-1v2.71c0,.24.08.37.26.37h.4a.29.29,0,0,0,.28-.19,5.08,5.08,0,0,0,.15-1.36l.58.2a4.51,4.51,0,0,1-.29,1.74.67.67,0,0,1-.6.27H88.3c-.45,0-.67-.3-.67-.89v-2.86h-.84a4.94,4.94,0,0,1-1.69,3.93l-.35-.64a4.14,4.14,0,0,0,1.43-3.3h-.84v-3.2Zm-.56-.34-.55.3a13.45,13.45,0,0,0-.82-1.76l.54-.28C86.38,284,86.66,284.62,86.93,285.24Zm1.69,1H86v1.91h2.66Zm6.49-2.82a13.44,13.44,0,0,0,4,3.5l-.36.7a13.3,13.3,0,0,1-3.92-3.54,13.72,13.72,0,0,1-4,3.56l-.35-.7a13.82,13.82,0,0,0,4.06-3.52Zm2.66,9.25h-.64v-.61H92.61v.61H92v-4.06h5.8Zm-.51-6v.7H92.48v-.7Zm-.13,4.74v-2.08H92.61v2.08Zm4.72-4.85V291c.33-.3.7-.65,1.08-1l.17.75a13,13,0,0,1-1.83,1.61l-.26-.66a.55.55,0,0,0,.21-.42v-4H99.86v-.7Zm.66-1.43-.45.5a10.38,10.38,0,0,0-1.58-1.56l.46-.49A10.89,10.89,0,0,1,102.5,285.07Zm2.71,1.37v-3h.68v3h2.36v.73h-2.36v5.52h-.68v-5.52h-2.48v-.73Zm8.47-3.13a9.3,9.3,0,0,0-.87,2.09,8.72,8.72,0,0,0,0,5.24,9.71,9.71,0,0,0,.87,2.09H113a9.28,9.28,0,0,1-.94-2.08,8.79,8.79,0,0,1,0-5.27,8.89,8.89,0,0,1,.94-2.08Zm4.57,2.75a16.58,16.58,0,0,0,.12-1.83v-.82H119v.66a16.92,16.92,0,0,1-.12,2h3.81v.71h-3.61a9,9,0,0,0,3.79,5.27l-.41.59a9.46,9.46,0,0,1-3.8-5.29,7.9,7.9,0,0,1-3.79,5.36l-.41-.61a7.21,7.21,0,0,0,3.64-5.32h-3.46v-.71Zm11.21,3.82v.7H124v-.7Zm2.07-3.86h-.65v-1.5h-6V286h-.65v-2.18h7.32Zm-5.43,2H131c0,2.46-.17,3.85-.45,4.18a2,2,0,0,1-1.49.42h-.8l-.18-.68,1,0a1.24,1.24,0,0,0,1-.29,8.8,8.8,0,0,0,.29-3h-5.1c.39-1.41.68-2.66.87-3.74l.65.07c-.06.34-.13.67-.19,1h3.74v.69h-3.89C126.34,287.15,126.22,287.59,126.1,288Zm7.73-4.69a9.71,9.71,0,0,1,.94,2.08,8.79,8.79,0,0,1,0,5.27,10.18,10.18,0,0,1-.94,2.08h-.64a11.33,11.33,0,0,0,.87-2.09,8.72,8.72,0,0,0,0-5.24,10.78,10.78,0,0,0-.87-2.09Z" data-name="价税合计(大写)" id="价税合计_大写_" transform="translate(-30 -10)"/>
        <path d="M379.29,95A10.33,10.33,0,0,1,376,97.85a.45.45,0,0,0,.24.06h1.79a.64.64,0,0,0,.46-.14,2.08,2.08,0,0,0,.24-1.09l.62.22a2.49,2.49,0,0,1-.39,1.43,1.2,1.2,0,0,1-.81.23h-2.09a.74.74,0,0,1-.72-.36,16,16,0,0,1-2.37.91l-.26-.62a15.53,15.53,0,0,0,2.49-1v-2h.63v1.7a9.91,9.91,0,0,0,3-2.56Zm1.45.55h-.64v-1.4h-6.38v1.4h-.64V93.52h3.53a7.76,7.76,0,0,0-.32-.75l.7-.12a8.91,8.91,0,0,1,.29.87h3.47Zm-5.83-.33a7.45,7.45,0,0,1-1.17,2.38l-.54-.37a6.09,6.09,0,0,0,1.13-2.15Zm2.36,3.62v2h2.29V99.11h.65V102h-.65v-.43H374.4v.42h-.65V99.2h.65v1.64h2.21v-2Zm.17-3.29L377,96a9.37,9.37,0,0,0-1-1.23l.49-.33A8.89,8.89,0,0,1,377.44,95.58Zm3.62,2.12-.52.4a16.38,16.38,0,0,0-1.39-2.1l.48-.37A17,17,0,0,1,381.06,97.7Zm-4.55,23.06h-.61v-.57h-1V121h-.61v-4.11a11.86,11.86,0,0,1-.61,1.06l-.33-.59a10.83,10.83,0,0,0,1.38-4h-1.12v-.71h3.13v.71h-1.38a13.93,13.93,0,0,1-.54,2.27h1.69Zm-.61-1.23v-3.29h-1v3.29Zm4.42-1.13v.69H377v-.69Zm-1.93-4.5-.4,2.54h1.94l.46-3.3h-3.23v-.69h3.94l-.5,4h1c0,2.44-.13,3.84-.37,4.23a1.84,1.84,0,0,1-1.59.55l-.83,0-.18-.71q.61.06.85.06c.71,0,1.13-.17,1.27-.49a10.8,10.8,0,0,0,.22-2.94h-3.7l.5-3.27Zm2.28,18.93v.7H374v7H381v.7h-7.55v-8.41Zm-3,3.74a12.28,12.28,0,0,0,1.36-2.54l.6.35a12.72,12.72,0,0,1-1.44,2.69q1.07,1.09,2,2.15l-.51.56a23.05,23.05,0,0,0-1.88-2.15,8.4,8.4,0,0,1-2.79,2.18l-.39-.66a7.55,7.55,0,0,0,2.67-2c-.72-.71-1.52-1.43-2.4-2.17l.48-.5C376.18,135.16,377,135.87,377.7,136.57Z" id="密码区" transform="translate(-30 -10)"/>
        <path d="M67,135.42v.69H65.5v2.62h2v.68h-2v4.39h-.67v-4.39H62.18a8.59,8.59,0,0,1-.53,2.53,3.9,3.9,0,0,1-1.73,1.93l-.36-.61a3.66,3.66,0,0,0,1.56-1.81,9.07,9.07,0,0,0,.39-2H59.39v-.68h2.15c0-.13,0-.25,0-.35v-2.28H59.89v-.69Zm-4.8,3c0,.12,0,.24,0,.35h2.6v-2.62H62.24Zm6.66,5.55-.49-.48a7.79,7.79,0,0,0,1.14-4.33V136h3a10.88,10.88,0,0,0-.53-1.16l.71-.12q.25.56.5,1.28h2.9v3.33H70.2A8.67,8.67,0,0,1,68.9,143.95Zm1.3-7.2v1.93h5.24v-1.93Zm10.2-1.53a7.69,7.69,0,0,1-2.48,2.91l-.19-.71a6.72,6.72,0,0,0,2.07-2.49Zm.43,2.26a7.93,7.93,0,0,1-1,1.58v4.85h-.65v-4.13a11.88,11.88,0,0,1-1.2,1l-.19-.71a7.88,7.88,0,0,0,2.45-2.92Zm5.22.5v.7H84.57V143a.78.78,0,0,1-.89.86H82.33l-.14-.7c.44,0,.85,0,1.26,0s.45-.13.45-.39v-4.15H81V138Zm-.4-2.51v.7H81.26v-.7Zm2.11.5v-.7h5.47v.47c-.17.86-.35,1.6-.51,2.23h1.85v.42a6.74,6.74,0,0,1-1.73,3.43,12.18,12.18,0,0,0,2.45,1.49l-.43.63a11.37,11.37,0,0,1-2.53-1.64,9.66,9.66,0,0,1-3,1.68l-.39-.66a9.94,9.94,0,0,0,2.83-1.52,8.42,8.42,0,0,1-1.9-2.93,8,8,0,0,1-2.36,5l-.5-.49q2.28-2,2.32-6.51V136Zm6.12,2.63h-2A25.11,25.11,0,0,0,92.5,136H90v.91c0,.16,0,.31,0,.47a7.44,7.44,0,0,0,2.27,4A6,6,0,0,0,93.87,138.6Zm4.59-2v3.22a7,7,0,0,1-.46,2.66,3.1,3.1,0,0,1-1.38,1.45l-.36-.59A2.75,2.75,0,0,0,97.54,142a6.62,6.62,0,0,0,.36-2.21v-3.22Zm1.31,4.83h-.59v-5.55h-2v5.55H96.6v-6.22h3.17Zm.28,1.91-.47.5a9.67,9.67,0,0,0-1.23-1.69l.42-.45A11.43,11.43,0,0,1,100,143.35Zm1.41-3.73V143a7.07,7.07,0,0,0,1.25-.68l.12.63a8,8,0,0,1-1.94,1l-.28-.63a.33.33,0,0,0,.21-.31v-3.33h-.66v-.69h.66v-4.09h.64v4.09h3v.69h-1.66a8.4,8.4,0,0,0,1.83,3.64l-.45.55a9.47,9.47,0,0,1-2-4.2Zm2.91-3.89a6.9,6.9,0,0,1-2.26,2.48l-.36-.55a6.3,6.3,0,0,0,2.12-2.37Zm1.12,3.66v-.68h8.24v.68h-5.47l-.31,1.16h4.48a7.1,7.1,0,0,1-.42,2.84,1.49,1.49,0,0,1-1.27.45,11.14,11.14,0,0,1-1.22-.06l-.22-.65q.73.06,1.29.06c.5,0,.8-.11.92-.33a5.64,5.64,0,0,0,.25-1.66h-4.6l.43-1.8Zm6.81-4.21v2.67h-5.37v-2.67Zm-.68.64h-4v1.39h4Zm4.76,1.55a.57.57,0,0,1,.17.43.6.6,0,0,1-.17.43.53.53,0,0,1-.4.18.52.52,0,0,1-.4-.18.59.59,0,0,1-.16-.43.56.56,0,0,1,.16-.43.5.5,0,0,1,.4-.19A.51.51,0,0,1,116.37,137.38Zm0,3.62a.57.57,0,0,1,.17.43.6.6,0,0,1-.17.43.53.53,0,0,1-.4.18.52.52,0,0,1-.4-.18.59.59,0,0,1-.16-.43.56.56,0,0,1,.16-.43.5.5,0,0,1,.4-.19A.51.51,0,0,1,116.37,141Z" id="购买方-开户行及账号" transform="translate(-30 -10)"/>
        <path d="M62.48,127.67a15.17,15.17,0,0,1-2.72,1.09L59.6,128c.39-.09.77-.2,1.16-.33v-3.62h-1v-.71h1v-2.63h.65v2.63h1v.71h-1v3.38c.37-.15.73-.33,1.08-.51Zm5.11-1.29c-.09.43-.49.65-1.17.65h-.06l-.18-.72.38,0A.42.42,0,0,0,67,126a21.75,21.75,0,0,0,.08-2.4l-1.34.45v3.85h-.64v-3.63l-1.34.45v3.95a.42.42,0,0,0,.48.47h2.58a.43.43,0,0,0,.4-.2,4.34,4.34,0,0,0,.21-1.49l.61.21a4.13,4.13,0,0,1-.37,1.87.9.9,0,0,1-.74.3h-2.9c-.61,0-.92-.35-.92-1v-3.88l-.77.26v-.71l.77-.26v-2.5h.64V124l1.34-.46v-2.86h.64v2.64l2-.67A28.12,28.12,0,0,1,67.59,126.38Zm8.46,1.42a20.28,20.28,0,0,1-3,.93l-.17-.77q.63-.12,1.24-.27V124H73v-.71h1.15V120.7h.68v2.59h1.13V124H74.81v3.47c.42-.13.83-.27,1.24-.44Zm3.31-7.15v3.26H81.1v.7H79.36v4.27h2v.71H75.59v-.71h1.06V122.8h.66v6.07h1.38v-8.23Zm5.06,7.92a8.7,8.7,0,0,1,.79,1l-.46.43a9.58,9.58,0,0,0-.78-1,8.12,8.12,0,0,0-1-1l.41-.43A7.52,7.52,0,0,1,84.42,128.57Zm8.37-1.43V128h-.66v-5.93H95v-1.39h.67v1.39h3v5.07h-3v1.25c0,.5.2.75.61.75h2.09a.68.68,0,0,0,.5-.17,3.12,3.12,0,0,0,.19-1.21l.62.23a3.28,3.28,0,0,1-.32,1.58,1.2,1.2,0,0,1-.89.26H96.16c-.75,0-1.12-.45-1.12-1.33v-1.36Zm0-4.38v1.5H95v-1.5Zm0,3.7H95v-1.53H92.79Zm5.24-3.7H95.71v1.5H98Zm0,3.7v-1.53H95.71v1.53Zm9.54-2.69v4.54c.31-.29.66-.63,1-1l.17.77a12.21,12.21,0,0,1-1.78,1.57l-.26-.65a.62.62,0,0,0,.2-.43v-4.07h-1.35v-.7Zm.69-1.45-.45.51a10.43,10.43,0,0,0-1.58-1.58l.46-.5A10.94,10.94,0,0,1,108.26,122.33Zm2.76,1.3V122a20,20,0,0,1-2.14.11l-.19-.66a13.59,13.59,0,0,0,4.72-.7l.32.62a9.62,9.62,0,0,1-2,.54v1.7h2.37v.71h-2.37V126h1.74v4h-.66v-.51H110V130h-.65v-4H111v-1.64h-2.51v-.71Zm1.75,5.13v-2.12H110v2.12Zm3.46-5.58a.59.59,0,0,1,.17.44.63.63,0,0,1-.17.44.53.53,0,0,1-.4.18.51.51,0,0,1-.4-.18.62.62,0,0,1-.16-.44.59.59,0,0,1,.16-.44.49.49,0,0,1,.4-.19A.51.51,0,0,1,116.24,123.18Zm0,3.73a.59.59,0,0,1,.17.44.63.63,0,0,1-.17.44.53.53,0,0,1-.4.18.51.51,0,0,1-.4-.18.62.62,0,0,1-.16-.44.59.59,0,0,1,.16-.44.49.49,0,0,1,.4-.19A.51.51,0,0,1,116.24,126.91Z" id="购买方-地址电话" transform="translate(-30 -10)"/>
        <path d="M61.9,106.63a18.55,18.55,0,0,1-1.32,3.1c.39-.05.77-.11,1.16-.19l.52-1.18.6.24a26.56,26.56,0,0,1-2,3.76,12.67,12.67,0,0,0,1.81-.61v.63a11.55,11.55,0,0,1-2.59.78l-.18-.65a.85.85,0,0,0,.3-.21,11.31,11.31,0,0,0,1.23-2.11l-1.45.24-.17-.67a.81.81,0,0,0,.28-.27,17.51,17.51,0,0,0,1.18-3.13Zm.83,7.64a15.39,15.39,0,0,1-2.83.9l-.08-.7a13.78,13.78,0,0,0,2.92-.89Zm3.48,1.3-.17-.69.76,0c.24,0,.37-.15.37-.43V108.7H65.78c0,.42-.07.81-.13,1.16A26.78,26.78,0,0,1,67,112.73l-.51.4c-.26-.75-.58-1.54-1-2.4a6.26,6.26,0,0,1-1.16,2.49l-.42-.56a6.14,6.14,0,0,0,1.1-2.75c.06-.37.09-.78.13-1.21h-1.4v6.93h-.62V108h2.06c0-.52,0-1.07,0-1.65h.64c0,.6,0,1.15,0,1.65h2v6.65c0,.62-.27.93-.78.93Zm4.33-6.49V107.6q-.61.11-1.24.18l-.13-.67a13.36,13.36,0,0,0,3-.63l.23.68c-.38.12-.77.22-1.18.31v1.6h1.13v.7H71.19v.64a21.45,21.45,0,0,1,1.33,1.71l-.37.62c-.37-.67-.69-1.19-1-1.59v4.38h-.64v-4.42a11.12,11.12,0,0,1-1.26,2.58l-.29-.84a8.57,8.57,0,0,0,1.5-3.08H69.22v-.7Zm4.44-.56a15.54,15.54,0,0,0,.89-2.21l.62.24a11.7,11.7,0,0,1-.83,2h1.05v3.2h-1v2.71c0,.24.08.37.26.37h.4a.29.29,0,0,0,.28-.19,5.08,5.08,0,0,0,.15-1.36l.58.2a4.51,4.51,0,0,1-.29,1.74.67.67,0,0,1-.6.27H75.8c-.45,0-.67-.3-.67-.89v-2.86h-.84a4.94,4.94,0,0,1-1.69,3.93l-.35-.64a4.14,4.14,0,0,0,1.43-3.3h-.84v-3.2Zm-.56-.34-.55.3a13.45,13.45,0,0,0-.82-1.76l.54-.28C73.88,107,74.16,107.55,74.42,108.17Zm1.69,1H73.45v1.91h2.66Zm6.6-.55a9.3,9.3,0,0,0,4,6.28l-.43.64a9.87,9.87,0,0,1-3.79-5.45,9.38,9.38,0,0,1-3.89,5.46l-.4-.65A8.26,8.26,0,0,0,82.09,108c0-.69,0-1.22,0-1.6h.67C82.77,107.23,82.75,108,82.71,108.61Zm6.76.83v4.45c.29-.28.61-.62.94-1l.17.77a12.55,12.55,0,0,1-1.69,1.55l-.26-.65a.57.57,0,0,0,.19-.42v-4H87.51v-.7Zm.67-1.45-.45.5a10.39,10.39,0,0,0-1.54-1.54l.46-.49A11.44,11.44,0,0,1,90.14,108Zm2.53,4.6a13.76,13.76,0,0,1-1.62,3.07l-.58-.46a11.43,11.43,0,0,0,1.61-2.92ZM95.32,107v4.71H91.11V107Zm-.66.7h-2.9V111h2.9ZM96,115.17l-.57.43a23.77,23.77,0,0,0-1.63-3l.53-.37A24.29,24.29,0,0,1,96,115.17ZM97.25,110v-3.21h3.9V110h-1.8c0,.44,0,.85-.08,1.23h2a21.79,21.79,0,0,1-.14,3.26c-.09.67-.53,1-1.33,1l-.62,0-.16-.65c.27,0,.5,0,.69,0a.73.73,0,0,0,.81-.66,19.22,19.22,0,0,0,.1-2.3h-1.4a7.88,7.88,0,0,1-.37,1.51,5.29,5.29,0,0,1-1.68,2.2l-.42-.57a4.43,4.43,0,0,0,1.5-1.92,6.24,6.24,0,0,0,.31-1.22H96.9v-.68h1.71c0-.38.07-.79.09-1.23Zm3.26-2.55H97.88v1.89h2.63Zm2.31-.17v6.28h-.64v-6.28Zm-.24,8.27-.15-.7c.43,0,.83.05,1.22.05s.43-.18.43-.54v-7.94h.66v8.12c0,.67-.29,1-.86,1ZM106,111v-.7h8.24v.7h-5.47l-.31,1.18h4.48a7.36,7.36,0,0,1-.42,2.89,1.48,1.48,0,0,1-1.27.45,10.94,10.94,0,0,1-1.22-.06l-.22-.67q.73.06,1.29.06c.5,0,.8-.11.92-.33a5.85,5.85,0,0,0,.25-1.69h-4.6l.43-1.84Zm6.81-4.29v2.72h-5.37v-2.72Zm-.68.66h-4v1.41h4Zm4.11,1.15a.58.58,0,0,1,.17.43.62.62,0,0,1-.17.43.53.53,0,0,1-.4.18.52.52,0,0,1-.4-.18.61.61,0,0,1-.16-.43.58.58,0,0,1,.16-.43.49.49,0,0,1,.4-.19A.51.51,0,0,1,116.23,108.52Zm0,3.69a.58.58,0,0,1,.17.43.62.62,0,0,1-.17.43.53.53,0,0,1-.4.18.52.52,0,0,1-.4-.18.61.61,0,0,1-.16-.43.58.58,0,0,1,.16-.43.49.49,0,0,1,.4-.19A.51.51,0,0,1,116.23,112.21Z" id="购买方-纳税人识别号" transform="translate(-30 -10)"/>
        <path d="M61.95,101h-.66V97.49c-.57.2-1.16.38-1.81.55l-.35-.7a15.19,15.19,0,0,0,4-1.41,11.11,11.11,0,0,0-1.65-1.21l.57-.39a13.47,13.47,0,0,1,1.64,1.27,5.84,5.84,0,0,0,2-2.16H62.3a9.29,9.29,0,0,1-2.38,1.7l-.44-.63a6.46,6.46,0,0,0,3.17-2.71l.72.09a7,7,0,0,1-.5.86h3.58v.65a7.52,7.52,0,0,1-3.57,3.39h3.82V101H66v-.6h-4.1ZM66,97.46h-4.1v2.28H66Zm40.46-2.9V93.12c-.39.06-.77.12-1.17.16l-.13-.69a13.22,13.22,0,0,0,3-.62l.23.69c-.4.12-.84.24-1.31.34v1.55h1.13v.7h-1.13v.55a19.6,19.6,0,0,1,1.37,1.47l-.37.61c-.39-.61-.72-1.08-1-1.43V101h-.63V96.44a10.75,10.75,0,0,1-1.27,2.69l-.28-.81a8.27,8.27,0,0,0,1.49-3.07h-1.27v-.7Zm3.33,1.78a13.9,13.9,0,0,1-1.13,3.48l-.57-.39a12.2,12.2,0,0,0,1.08-3.22Zm-.94-.73-.4-.57a7.93,7.93,0,0,0,1.27-3.27l.65.09a11.58,11.58,0,0,1-.32,1.33h3v.47a18.87,18.87,0,0,1-.43,2l-.64-.21a11,11,0,0,0,.41-1.58h-2.62A7.67,7.67,0,0,1,108.89,95.61Zm.61,5.39-.14-.7a7.32,7.32,0,0,0,.79.05c.22,0,.34-.15.34-.44V94.75h.68v5.34c0,.61-.27.91-.79.91Zm3.93-1.37-.61.29a31.22,31.22,0,0,0-1.06-3.57l.6-.21A29.71,29.71,0,0,1,113.43,99.62Zm2.94-5a.58.58,0,0,1,.17.43.62.62,0,0,1-.17.43.53.53,0,0,1-.4.18.52.52,0,0,1-.4-.18.61.61,0,0,1-.16-.43.58.58,0,0,1,.16-.43.49.49,0,0,1,.4-.19A.51.51,0,0,1,116.37,94.59Zm0,3.69a.58.58,0,0,1,.17.43.62.62,0,0,1-.17.43.53.53,0,0,1-.4.18.52.52,0,0,1-.4-.18.61.61,0,0,1-.16-.43.58.58,0,0,1,.16-.43.49.49,0,0,1,.4-.19A.51.51,0,0,1,116.37,98.28Z" id="购买方-名称" transform="translate(-30 -10)"/>
        <path d="M40.4,97.89v3.31a7.23,7.23,0,0,1-.45,2.67,3.07,3.07,0,0,1-1.35,1.46l-.35-.61a2.79,2.79,0,0,0,1.24-1.31,6.62,6.62,0,0,0,.36-2.22V97.89Zm1.27,4.92h-.59V97.16h-1.9v5.66h-.6V96.48h3.08Zm.4,1.94-.48.51a10.1,10.1,0,0,0-1.24-1.69l.42-.45A11.19,11.19,0,0,1,42.07,104.75Zm1.54-8.61a14.2,14.2,0,0,1-.33,1.38h3c0,3.51-.06,5.66-.15,6.47s-.51,1.24-1.25,1.24l-1.28,0-.16-.66c.51,0,1,0,1.34,0s.64-.26.72-.79.12-2.45.14-5.57H43a7.57,7.57,0,0,1-.92,1.65l-.4-.57A7.88,7.88,0,0,0,43,96Zm1.64,7-.54.3-.2-.73a18.31,18.31,0,0,1-2.35.41l-.11-.63c.35-.3.79-1.43,1.31-3.39l.6.21a21.14,21.14,0,0,1-1.16,3.12,13.08,13.08,0,0,0,1.53-.31c-.15-.48-.3-.94-.46-1.35l.5-.27C44.69,101.32,45,102.2,45.25,103.15Zm-2,10.91v2.12a8.46,8.46,0,0,1-.18,1.52h3.41v.71H42.87c-.06.16-.13.32-.2.46A28.44,28.44,0,0,1,46.3,121l-.45.54a29,29,0,0,0-3.51-2.12l-.15.2a6.59,6.59,0,0,1-3.27,1.87l-.38-.65a6.38,6.38,0,0,0,3.18-1.72,3.56,3.56,0,0,0,.41-.71H38.5v-.71h3.91a6.57,6.57,0,0,0,.22-1.52v-2.12Zm2.56-1.2v.45a14.32,14.32,0,0,1-.54,1.8l-.62-.19a7.9,7.9,0,0,0,.48-1.38h-6.3v-.68Zm-4.67,3.73-.34.59a8.1,8.1,0,0,0-1.9-1.19l.32-.51A10,10,0,0,1,41.17,116.59Zm.82-1.4-.34.57a7.9,7.9,0,0,0-1.86-1.19l.31-.51A9.08,9.08,0,0,1,42,115.19Zm-4.57,14.74v.7H40c0,.34,0,.83-.06,1.46a8,8,0,0,1-.53,2.6,7.73,7.73,0,0,1-1.94,2.52l.48.5a8.22,8.22,0,0,0,1.88-2.37,7.34,7.34,0,0,0,.68-2.22h3.21c0,1.39,0,2.31-.1,2.73-.11.71-.39,1.07-.86,1.09l-1.19,0,.2.66c.4,0,.76,0,1.05,0,.72,0,1.17-.47,1.36-1.33a25.47,25.47,0,0,0,.21-3.84H40.56v0l.08-1.8h4.83v-.7H42a9,9,0,0,0-.72-1.53l-.62.25a7.6,7.6,0,0,1,.67,1.28Z" id="购买方" transform="translate(-30 -10)"/>
        <path d="M493,74.8a.58.58,0,0,1,.17.43.62.62,0,0,1-.17.43.53.53,0,0,1-.4.18.52.52,0,0,1-.4-.18.61.61,0,0,1-.16-.43.58.58,0,0,1,.16-.43.49.49,0,0,1,.4-.19A.51.51,0,0,1,493,74.8Zm0,3.69a.58.58,0,0,1,.17.43.62.62,0,0,1-.17.43.53.53,0,0,1-.4.18.52.52,0,0,1-.4-.18.61.61,0,0,1-.16-.43.58.58,0,0,1,.16-.43.49.49,0,0,1,.4-.19A.51.51,0,0,1,493,78.5Zm-6.92,3.11h-.61V81h-1v.77h-.61V77.69a11.86,11.86,0,0,1-.61,1.06l-.33-.59a10.83,10.83,0,0,0,1.38-4h-1.12v-.71h3.13v.71h-1.38a13.93,13.93,0,0,1-.54,2.27h1.69Zm-.61-1.23V77.08h-1v3.29Zm4.42-1.13v.69h-3.36v-.69ZM488,74.74l-.4,2.54h1.94L490,74h-3.23V73.3h3.94l-.5,4h1c0,2.44-.13,3.84-.37,4.23a1.84,1.84,0,0,1-1.59.55l-.83,0-.18-.71q.61.06.85.06c.71,0,1.13-.17,1.27-.49a10.8,10.8,0,0,0,.22-2.94h-3.7l.5-3.27Zm-31.88.37V73.18h.67v1.94h1v.7h-1v.83q.47.62.94,1.33a9.72,9.72,0,0,0,1.42-2.4l.55.3a11,11,0,0,1-1.49,2.55l-.39-.31.21.33-.36.57q-.51-1.06-.88-1.72v5.06h-.67V77.23a11.56,11.56,0,0,1-1.2,2.68l-.28-.79a9.49,9.49,0,0,0,1.47-3.32h-1.24v-.7Zm5.73,2.44a7.21,7.21,0,0,1-1,2.74,7.09,7.09,0,0,0,2.26,1.44l-.33.65a7.49,7.49,0,0,1-2.33-1.53A5.21,5.21,0,0,1,458,82.45l-.38-.66a4.74,4.74,0,0,0,2.37-1.46,5.74,5.74,0,0,1-1.13-2.64l.58-.19a4.73,4.73,0,0,0,1,2.28,6.4,6.4,0,0,0,.83-2.35Zm-1.62-3.1a9.89,9.89,0,0,0-.54-1.28l.67-.12a12.45,12.45,0,0,1,.53,1.4h2v.71h-4.93v-.71ZM463,77.94l-.55.41A19.91,19.91,0,0,0,461,75.88l.51-.35A20.28,20.28,0,0,1,463,77.94Zm7.89,2a11.53,11.53,0,0,1-2,.62l-.08-.69a11.5,11.5,0,0,0,2.13-.59ZM469,74.29v-.67h2.88l-.44,4.16h.57a15.18,15.18,0,0,1-.27,4,1.17,1.17,0,0,1-1.14.52l-.65,0-.17-.65a6.4,6.4,0,0,0,.68.06c.44,0,.71-.16.8-.46a14.83,14.83,0,0,0,.15-2.77h-2.34l.43-3.46.61,0-.37,2.77h1.08l.4-3.49Zm3.33,2.91-.35-.59a8.49,8.49,0,0,0,2.37-3.42H475a7.88,7.88,0,0,0,2.4,3.38l-.36.61A8.58,8.58,0,0,1,476,76.12v.63h-2.58v-.63A8.42,8.42,0,0,1,472.38,77.2Zm2.9,4.16a29.35,29.35,0,0,0,.94-4l.63.17a28,28,0,0,1-.93,3.81h1.38v.7h-5v-.7Zm-1.35-.8-.57.15a21.16,21.16,0,0,0-.79-2.83l.57-.21A25.08,25.08,0,0,1,473.93,80.56Zm.78-6.66a9.77,9.77,0,0,1-1.26,2.18H476A8.47,8.47,0,0,1,474.71,73.91Zm.51,6.22-.58.15a21,21,0,0,0-.66-2.71l.57-.19A26.23,26.23,0,0,1,475.22,80.13Z" id="校验码" transform="translate(-30 -10)"/>
        <path d="M493,60.55a.58.58,0,0,1,.17.43.62.62,0,0,1-.17.43.53.53,0,0,1-.4.18.52.52,0,0,1-.4-.18A.61.61,0,0,1,492,61a.58.58,0,0,1,.16-.43.49.49,0,0,1,.4-.19A.51.51,0,0,1,493,60.55Zm0,3.69a.58.58,0,0,1,.17.43.62.62,0,0,1-.17.43.53.53,0,0,1-.4.18.52.52,0,0,1-.4-.18.61.61,0,0,1-.16-.43.58.58,0,0,1,.16-.43.49.49,0,0,1,.4-.19A.51.51,0,0,1,493,64.24Zm-31.57-5.65v.71h-1.53V62h2v.7h-2v4.47h-.67V62.66h-2.65a8.9,8.9,0,0,1-.53,2.58,4,4,0,0,1-1.73,2l-.36-.63a3.71,3.71,0,0,0,1.56-1.85,9.39,9.39,0,0,0,.39-2.08h-2.12V62h2.15c0-.13,0-.25,0-.35V59.29h-1.67v-.71Zm-4.8,3c0,.12,0,.24,0,.35h2.6V59.29h-2.6Zm14.45-3.24V59h-2.76v.81h2.1v2.24H463.6V59.82h2.1V59h-2.77v-.64Zm-.15,5.77v.64h-3.5v1.57a.74.74,0,0,1-.83.84h-.83l-.13-.65c.26,0,.5,0,.74,0a.35.35,0,0,0,.39-.39V64.78h-3.7v-.64Zm-5.19,1.43a8.78,8.78,0,0,1-2.26,1.52l-.39-.56a9.29,9.29,0,0,0,2.23-1.39Zm4.33-2.77v.61H464V62.8Zm-4.36-2.38h-1.47v1h1.47Zm2-1.41h-1.37v.81h1.37Zm0,1.41h-1.37v1h1.37Zm2.09,0h-1.47v1h1.47ZM471,66.61l-.46.5a12.18,12.18,0,0,0-2.1-1.53l.44-.45A14.09,14.09,0,0,1,471,66.61Zm8.09.57h-.67v-.77h-4.34v.78h-.66V58.39h5.67ZM478.43,62V59.09h-4.34V62Zm0,3.74v-3h-4.34v3Zm4.48-.4a8.64,8.64,0,0,1-1.21,1.9l-.52-.41a7.4,7.4,0,0,0,1.2-1.77ZM482.54,58v1.13h1.79V58H485v1.11h.55v.68H485v4.27h.6v.69h-4.34v-.69h.67V59.82h-.57v-.68h.57V58Zm0,1.81v1h1.79v-1Zm1.79,2.64v-1h-1.79v1Zm0,1.62v-1h-1.79v1Zm.83,2.53a6.56,6.56,0,0,0,.93-3.53V58.37h3v7.91c0,.57-.28.87-.81.87h-1l-.18-.72c.34,0,.65,0,.94,0s.36-.15.36-.45V63.94h-1.78a7,7,0,0,1-1.1,3.32l-.5-.51a.21.21,0,0,0,0-.06l-.49.38a12,12,0,0,0-1-1.68l.51-.35A13.48,13.48,0,0,1,485.16,66.62ZM486.73,63c0,.09,0,.17,0,.25h1.74v-1.8h-1.73Zm1.73-4h-1.73v1.77h1.73Z" id="开票日期" transform="translate(-30 -10)"/>
        <path d="M493.16,44.86a.58.58,0,0,1,.17.43.62.62,0,0,1-.17.43.53.53,0,0,1-.4.18.52.52,0,0,1-.4-.18.61.61,0,0,1-.16-.43.58.58,0,0,1,.16-.43.49.49,0,0,1,.4-.19A.51.51,0,0,1,493.16,44.86Zm0,3.69a.58.58,0,0,1,.17.43.62.62,0,0,1-.17.43.53.53,0,0,1-.4.18.52.52,0,0,1-.4-.18.61.61,0,0,1-.16-.43.58.58,0,0,1,.16-.43.49.49,0,0,1,.4-.19A.51.51,0,0,1,493.16,48.55ZM455,43l.65.12-.52,2h1.6a24.32,24.32,0,0,0,.44-2.47l.67.09c-.12.85-.27,1.63-.43,2.38h4.29v.7h-4.47c-.11.4-.22.79-.35,1.15h3.75v.63a5.17,5.17,0,0,1-1.49,2.36,14.23,14.23,0,0,0,2.71,1.33l-.34.68a13.93,13.93,0,0,1-2.92-1.54,12.63,12.63,0,0,1-2.8,1.58l-.35-.68a12.22,12.22,0,0,0,2.57-1.36,5.37,5.37,0,0,1-1.52-2A10.41,10.41,0,0,1,454,51.77l-.34-.67a11.6,11.6,0,0,0,3-5.31h-2.27Zm3.57,6.53a4.74,4.74,0,0,0,1.4-1.91h-3A5.27,5.27,0,0,0,458.61,49.53Zm2.46-5.14-.47.51a10.69,10.69,0,0,0-1.61-1.7l.44-.47A11.62,11.62,0,0,1,461.07,44.38Zm10-1.28v.64h-2.76v.81h2.1v2.24H463.6V44.54h2.1v-.81h-2.77V43.1Zm-.15,5.77v.64h-3.5v1.57a.74.74,0,0,1-.83.84h-.83l-.13-.65c.26,0,.5,0,.74,0a.35.35,0,0,0,.39-.39V49.51h-3.7v-.64Zm-5.19,1.43a8.78,8.78,0,0,1-2.26,1.52l-.39-.56a9.29,9.29,0,0,0,2.23-1.39Zm4.33-2.77v.61H464v-.61Zm-4.36-2.38h-1.47v1h1.47Zm2-1.41h-1.37v.81h1.37Zm0,1.41h-1.37v1h1.37Zm2.09,0h-1.47v1h1.47ZM471,51.33l-.46.5a12.18,12.18,0,0,0-2.1-1.53l.44-.45A14.1,14.1,0,0,1,471,51.33Zm1-4v-.7h8.24v.7h-5.47l-.31,1.18H479a7.36,7.36,0,0,1-.42,2.89,1.48,1.48,0,0,1-1.27.45,10.94,10.94,0,0,1-1.22-.06l-.22-.67q.73.06,1.29.06c.5,0,.8-.11.92-.33a5.85,5.85,0,0,0,.25-1.69h-4.6l.43-1.84Zm6.81-4.29v2.72h-5.37V43.07Zm-.68.66h-4v1.41h4Zm6,7.71h-.61v-.57h-1v.77H482V47.52a11.86,11.86,0,0,1-.61,1.06l-.33-.59a10.83,10.83,0,0,0,1.38-4h-1.12v-.71h3.13V44h-1.38a13.93,13.93,0,0,1-.54,2.27h1.69Zm-.61-1.23V46.91h-1V50.2ZM488,49.07v.69h-3.36v-.69Zm-1.93-4.5-.4,2.54h1.94l.46-3.3h-3.23v-.69h3.94l-.5,4h1c0,2.44-.13,3.84-.37,4.23a1.84,1.84,0,0,1-1.59.55l-.83,0-.18-.71q.61.06.85.06c.71,0,1.13-.17,1.27-.49a10.8,10.8,0,0,0,.22-2.94H485l.5-3.27Z" id="发票号码" transform="translate(-30 -10)"/>
        <path d="M493.26,29.3a.58.58,0,0,1,.17.43.62.62,0,0,1-.17.43.53.53,0,0,1-.4.18.52.52,0,0,1-.4-.18.61.61,0,0,1-.16-.43.58.58,0,0,1,.16-.43.49.49,0,0,1,.4-.19A.51.51,0,0,1,493.26,29.3Zm0,3.69a.58.58,0,0,1,.17.43.62.62,0,0,1-.17.43.53.53,0,0,1-.4.18.52.52,0,0,1-.4-.18.61.61,0,0,1-.16-.43.58.58,0,0,1,.16-.43.49.49,0,0,1,.4-.19A.51.51,0,0,1,493.26,33ZM455,27.19l.65.12-.52,2h1.6a24.32,24.32,0,0,0,.44-2.47l.67.09c-.12.85-.27,1.63-.43,2.38h4.29V30h-4.47c-.11.4-.22.79-.35,1.15h3.75v.63a5.17,5.17,0,0,1-1.49,2.36,14.23,14.23,0,0,0,2.71,1.33l-.34.68a13.93,13.93,0,0,1-2.92-1.54,12.63,12.63,0,0,1-2.8,1.58l-.35-.68a12.22,12.22,0,0,0,2.57-1.36,5.37,5.37,0,0,1-1.52-2A10.41,10.41,0,0,1,454,36l-.34-.67a11.6,11.6,0,0,0,3-5.31h-2.27Zm3.57,6.53a4.74,4.74,0,0,0,1.4-1.91h-3A5.27,5.27,0,0,0,458.61,33.71Zm2.46-5.14-.47.51a10.69,10.69,0,0,0-1.61-1.7l.44-.47A11.62,11.62,0,0,1,461.07,28.57Zm10-1.28v.64h-2.76v.81h2.1V31H463.6V28.73h2.1v-.81h-2.77v-.64Zm-.15,5.77v.64h-3.5v1.57a.74.74,0,0,1-.83.84h-.83l-.13-.65c.26,0,.5,0,.74,0a.35.35,0,0,0,.39-.39V33.69h-3.7v-.64Zm-5.19,1.43A8.78,8.78,0,0,1,463.48,36l-.39-.56a9.29,9.29,0,0,0,2.23-1.39Zm4.33-2.77v.61H464v-.61Zm-4.36-2.38h-1.47v1h1.47Zm2-1.41h-1.37v.81h1.37Zm0,1.41h-1.37v1h1.37Zm2.09,0h-1.47v1h1.47ZM471,35.52l-.46.5a12.18,12.18,0,0,0-2.1-1.53l.44-.45A14.1,14.1,0,0,1,471,35.52Zm1.1-3.71-.21-.76a11.59,11.59,0,0,0,2.19-4.2l.61.32a12.68,12.68,0,0,1-.89,2.17v6.82h-.68V30.49A13.7,13.7,0,0,1,472.1,31.81ZM480,30l-3,.42a15.53,15.53,0,0,0,.22,1.66,6.93,6.93,0,0,0,.92,2.44c.36.54.7.82,1,.83s.43-.66.56-1.93l.58.36a6.4,6.4,0,0,1-.48,1.85.76.76,0,0,1-.62.45,1.92,1.92,0,0,1-1.39-1,7.31,7.31,0,0,1-1.16-2.75,13.11,13.11,0,0,1-.28-1.87l-2,.28-.1-.7,2-.29q-.1-1.27-.11-2.94h.68q0,1.62.08,2.84l3-.41Zm-.74-1.52-.46.49a9.56,9.56,0,0,0-1.38-1.57l.42-.45A12,12,0,0,1,479.3,28.48Zm4.92,7.14h-.61V35h-1v.77H482V31.71a11.86,11.86,0,0,1-.61,1.06l-.33-.59a10.83,10.83,0,0,0,1.38-4h-1.12v-.71h3.13v.71h-1.38a13.93,13.93,0,0,1-.54,2.27h1.69Zm-.61-1.23V31.1h-1v3.29ZM488,33.26v.69h-3.36v-.69Zm-1.93-4.5-.4,2.54h1.94l.46-3.3h-3.23v-.69h3.94l-.5,4h1c0,2.44-.13,3.84-.37,4.23a1.84,1.84,0,0,1-1.59.55l-.83,0-.18-.71q.61.06.85.06c.71,0,1.13-.17,1.27-.49a10.8,10.8,0,0,0,.22-2.94H485l.5-3.27Z" id="发票代码" transform="translate(-30 -10)"/>
        <path d="M69.46,75.45a.58.58,0,0,1,.17.43.62.62,0,0,1-.17.43.53.53,0,0,1-.4.18.52.52,0,0,1-.4-.18.61.61,0,0,1-.16-.43.58.58,0,0,1,.16-.43.49.49,0,0,1,.4-.19A.51.51,0,0,1,69.46,75.45Zm0,3.69a.58.58,0,0,1,.17.43.62.62,0,0,1-.17.43.53.53,0,0,1-.4.18.52.52,0,0,1-.4-.18.61.61,0,0,1-.16-.43.58.58,0,0,1,.16-.43.49.49,0,0,1,.4-.19A.51.51,0,0,1,69.46,79.14ZM34.06,75.26c.06.05.08.09.08.12s0,.05-.12.05H32.4v1.21c.78.27,1.4.63,1.4,1.16,0,.21-.09.39-.19.39s-.19-.07-.28-.3a2.28,2.28,0,0,0-.93-1v3c0,.85,0,1.55,0,2v.08c0,.13,0,.17-.22.26a.49.49,0,0,1-.19.06c-.06,0-.07-.05-.07-.18v-.14c0-.58,0-1.5,0-2.08V76.59a15.24,15.24,0,0,1-1.54,3.33l-.1-.1a19.47,19.47,0,0,0,1.6-4.39h-.71a1.73,1.73,0,0,0-.61.11l-.26-.37a6,6,0,0,0,.67,0h1V74.3c0-.41,0-1.1,0-1.47l.67.38s.07.05.07.08,0,.05-.05.08l-.23.17v1.66h.76l.34-.53Zm4.5,4.06c.06,1.18.1,1.36.33,1.55,0,0,.06.05.06.09a.24.24,0,0,1,0,.1c-.2.55-.42.66-1.22.66s-.9-.05-.9-1.22V74.06H35.13v3.55c0,1.79-.36,3.49-2.24,4.66l-.06-.11a5.14,5.14,0,0,0,1.86-4.51V73.41l.51.41H36.6l.3-.47.64.53a.11.11,0,0,1,0,.07s0,.05-.05.07l-.31.18v6.31c0,.72.06.77.57.77s.6-.07.65-2Zm9.49-.57a.86.86,0,0,0-.69.31s0,.06-.08.06l-.06,0a5.42,5.42,0,0,1-2.7-2H42.86A10.56,10.56,0,0,1,41,78.83l.11.05h1.31l.25-.36.52.37s.06.06.06.08,0,.06-.06.1l-.22.2v1.32c0,.13,0,.78,0,.92s-.34.28-.39.28-.06,0-.06-.11v-.47H41.14v.62c0,.1,0,.14-.15.2a.64.64,0,0,1-.2.07c-.06,0-.08-.06-.08-.2s0-.8,0-.95V79.06a10.25,10.25,0,0,1-1.25.73l0-.11a13.08,13.08,0,0,0,2.93-2.59h-2a1.72,1.72,0,0,0-.61.11l-.26-.37c.23,0,.46,0,.67,0h2.33a9.11,9.11,0,0,0,.93-1.48l.55.29c.07,0,.11.06.11.09s0,0-.1.07l-.29.12c-.23.31-.46.62-.7.91h3.74l.36-.55.54.55c.08.08.12.14.12.17s0,.05-.16.05H44.71a4.48,4.48,0,0,0,3.35,1.53Zm-4.81-5.38c.06,0,.08.07.08.1s0,.06-.08.11l-.2.17v.78c0,.13,0,.77,0,.91s0,.14-.22.23a.35.35,0,0,1-.16.05c-.06,0-.06,0-.06-.1V75.3H41v.36c0,.1,0,.14-.16.2a.61.61,0,0,1-.19.07c-.06,0-.08-.06-.08-.21s0-.79,0-.94v-1c0-.32,0-.57,0-.83l.51.41h1.35l.27-.38Zm-.62,1.7V73.61H41v1.46Zm0,5.91V79.1H41.14V81Zm4-2.06s.06,0,.06.06a.17.17,0,0,1-.06.09l-.06.07v1.56c0,.13,0,.78,0,.92s-.32.27-.39.27-.06,0-.06-.1V81.2h-1.6v.59c0,.1,0,.14-.15.2a.62.62,0,0,1-.22.08c-.06,0-.07-.06-.07-.19s0-.82,0-1V79.35c0-.41,0-.57,0-.83l.55.33H46l.14-.19Zm.48-5.63c.06,0,.08.06.08.09s0,.06-.08.11l-.19.15v.88c0,.13,0,.77,0,.91s-.35.29-.39.29-.06,0-.06-.11v-.33H44.79c0,.14,0,.18-.16.25a.62.62,0,0,1-.22.08c-.06,0-.07-.06-.07-.19s0-.82,0-1V73.8c0-.37,0-.57,0-.83l.49.38h1.45l.23-.41ZM46.12,81v-1.9h-1.6V81Zm-1.42-5.2c.58.08,1.13.24,1.13.73,0,.17-.09.28-.21.28s-.14-.06-.21-.19a2,2,0,0,0-.74-.73Zm1.74-.71V73.58H44.79v1.48Zm5,4.94-1.5.67a3.12,3.12,0,0,0-.87.52.1.1,0,0,1-.07,0,.08.08,0,0,1-.06,0l-.28-.52,2.74-.78Zm.32-4.64s.06.07.06.09,0,0-.08.06a.44.44,0,0,0-.28.18,34.39,34.39,0,0,1-2.05,2.9l2.07-.29v.14a9.12,9.12,0,0,0-2.25.7l-.06,0s0,0-.06-.06l-.28-.56c.38-.1.55-.22.9-.76.22-.34.59-.94.81-1.34a3.64,3.64,0,0,0-1.43.42l-.06,0s0,0-.07-.07l-.29-.61c.33-.05.47-.16.71-.57a19.77,19.77,0,0,0,1.27-2.72l.51.43s.06.06.06.09,0,.05-.06.07a.62.62,0,0,0-.3.26c-.54.89-1.15,1.81-1.64,2.54l1.42-.09a12.38,12.38,0,0,0,.63-1.34Zm4.91-1s.07.06.07.08,0,.05-.07.09l-.25.2v.85c0,.1,0,.63,0,.67s0,.13-.23.22a.42.42,0,0,1-.16.06c-.06,0-.06,0-.06-.32H52.57c-.12,2.61-.41,4-1.81,5.42l-.11-.09c1.26-1.67,1.52-2.86,1.52-6.71,0-.34,0-.66,0-.93l.51.4h3.22l.24-.38Zm.25,3.23s.07.07.07.1,0,.06-.06.09l-.2.16v3.47c0,.42-.09.57-.54.84l-.08,0s0,0-.06-.07c0-.22-.16-.43-.72-.61l0-.14a4.2,4.2,0,0,0,.72.1c.2,0,.23-.06.23-.2v-2h-.91c0,.24,0,1.43,0,1.7a.27.27,0,0,1-.19.29.4.4,0,0,1-.17.06c-.06,0-.07-.06-.07-.21s0-1.55,0-1.85h-.85c0,.26,0,1.52,0,1.81a.28.28,0,0,1-.15.28.41.41,0,0,1-.18.08c-.07,0-.1-.08-.1-.28v-.06c0-.25,0-.41,0-1.83H53v2.47c0,.16-.22.28-.32.28s-.11-.08-.11-.24,0-1.53,0-1.83V78c0-.29,0-.59,0-.87l.46.36h3.23l.2-.37ZM56,76V74.5H52.63c0,.45,0,.94,0,1.46Zm-2.28,3.17V77.72H53v1.41Zm-.14-6.27c.37.17,1.18.53,1.18,1,0,.21-.15.42-.3.42s-.13-.07-.17-.21A2.68,2.68,0,0,0,53.54,73ZM55,79.13V77.72h-.85v1.41Zm1.32,0V77.72h-.91v1.41Zm10-2.12c.06.07.09.11.09.14s0,.05-.12.05H61.15l-.65,1.44h3.3l.31-.45.64.54s0,0,0,.05,0,0,0,.06l-.38.24a12.12,12.12,0,0,1-.66,2.13,1.94,1.94,0,0,1-1.24,1h-.06s0,0-.06-.09c0-.38-.14-.51-1.16-1l0-.15a5,5,0,0,0,1.46.42c.3,0,.44-.16.61-.47a7.27,7.27,0,0,0,.63-2.13H60.53l-.23.25,0,0s0,0-.08-.05l-.43-.43c.31-.13.39-.18.48-.37l.46-1H58.63a1.72,1.72,0,0,0-.61.11l-.26-.37c.23,0,.46,0,.67,0h6.92l.39-.58Zm-1.69-3.57s.07.06.07.09,0,.06-.07.1l-.28.22v1c0,.34,0,.64,0,1.09v.08c0,.13,0,.17-.22.26a.47.47,0,0,1-.17.06c-.06,0-.06-.05-.06-.13v-.43H60.19v.25c0,.14,0,.18-.17.25a.61.61,0,0,1-.19.07c-.06,0-.08-.06-.08-.2v-.13c0-.57,0-.69,0-1V74c0-.24,0-.73,0-1l.6.51h3.45L64,73Zm-.72,2.17v-2H60.19v2Z" id="机器编号" style="fill:#000000" transform="translate(-30 -10)"/>
        <path d="M208,14.11v6.61h7.93v1.5H208v9.15h9.75v1.5h-19v-1.5h7.7V14.11Zm16.32,8.28-1.09,1.09a20.39,20.39,0,0,0-3.29-2.74L221,19.67A24.49,24.49,0,0,1,224.32,22.39Zm.26,4.06a61.46,61.46,0,0,1-3,7l-1.43-.62a60.36,60.36,0,0,0,3.14-6.89Zm.09-9.35-1.09,1.11a18.38,18.38,0,0,0-3.29-2.69l1.11-1A21.4,21.4,0,0,1,224.66,17.11ZM226.93,19h10.86c-.06,1.88-.13,3.55-.17,5h1.82v1.43h-1.88c-.09,1.56-.15,2.82-.21,3.81h1.75v1.33h-1.86a9.47,9.47,0,0,1-.17,1.13,2.6,2.6,0,0,1-1.22,1.54,6,6,0,0,1-2.61.45l-1.86,0-.45-1.41c.77,0,1.48.09,2.12.09a7,7,0,0,0,1.56-.17,1.63,1.63,0,0,0,1-1,3.51,3.51,0,0,0,.13-.68H225.58c.34-1.71.64-3.42.86-5.13H224.3V24h2.29c.17-1.65.28-3.31.32-5a17.18,17.18,0,0,1-1.41,1.6l-1-1.18A15.47,15.47,0,0,0,228.06,14l1.54.32c-.21.53-.45,1-.68,1.52h9.88v1.43H228.12A21,21,0,0,1,226.93,19Zm.36,10.24h8.6c.06-1,.13-2.22.21-3.81h-8.21C227.72,26.79,227.53,28.08,227.29,29.23Zm9-8.87h-8c-.06,1.28-.15,2.5-.26,3.64h8.13C236.21,22.88,236.25,21.66,236.29,20.36ZM233.64,28l-1,1A17.65,17.65,0,0,0,230,26.62l1-.94A18.58,18.58,0,0,1,233.64,28Zm.21-5.18-1,1a15.11,15.11,0,0,0-2.67-2.14l1-.94A17.1,17.1,0,0,1,233.86,22.82Zm9.82-3v-5.6h1.52v5.6h2.16v1.45h-2.16v7.1c.83-.34,1.67-.73,2.48-1.15v1.54a37.35,37.35,0,0,1-6.07,2.37l-.38-1.52c.83-.19,1.65-.43,2.46-.68V21.28h-2.33V19.82Zm9-3h3a13.34,13.34,0,0,0,.83-2.87l1.54.21a14.26,14.26,0,0,1-.86,2.65H260v7.21H248.27V16.85h2.93a17.34,17.34,0,0,0-1-2.46l1.54-.26C252,14.93,252.34,15.82,252.64,16.85Zm6.59,16.89h-1.48v-.9H250.6v.9h-1.48V25.49h10.09Zm-5.75-15.61h-3.85V22.8h3.85Zm-.9,3.66-1,.26a21.53,21.53,0,0,0-1-2.72l1-.32A20.73,20.73,0,0,1,252.57,21.79Zm5.18,6.78V26.75H250.6v1.82Zm0,3V29.77H250.6v1.82Zm.9-13.45h-4V22.8h4Zm-1,1a14.41,14.41,0,0,1-1.07,3l-1-.36a14,14,0,0,0,1-2.84Zm5.48,5.28-.51-1.63A23.78,23.78,0,0,0,267.2,14l1.39.64a27,27,0,0,1-1.58,4V33.72h-1.5V21.3A26.49,26.49,0,0,1,263.12,24.44Zm13.26-10.2c0,.64-.11,1.28-.15,1.88h5.3v1.41h-5.47c-.09.64-.19,1.26-.28,1.86h4.34V31.67h2v1.41h-14V31.67h2.2V19.4h3.91c.09-.62.19-1.24.28-1.86h-5.47V16.12h5.62c.06-.71.13-1.41.17-2.1Zm2.27,8.28V20.79h-6.82v1.73Zm0,3V23.76h-6.82v1.75Zm0,3v-1.8h-6.82v1.8Zm0,3.12V29.79h-6.82v1.88Zm8.94-11.76V16.76q-1.41.22-2.89.38l-.3-1.41a33.87,33.87,0,0,0,6.91-1.33l.53,1.43c-.88.26-1.8.47-2.76.66v3.4h2.63v1.48h-2.63v1.35a46.34,46.34,0,0,1,3.1,3.64l-.86,1.3c-.86-1.41-1.6-2.52-2.25-3.38v9.28h-1.5V24.21a22.75,22.75,0,0,1-2.93,5.47L284,27.91a17.56,17.56,0,0,0,3.51-6.52h-3V19.91Zm10.35-1.2A31.28,31.28,0,0,0,300,14l1.45.51a23.66,23.66,0,0,1-1.95,4.17H302v6.78h-2.29v5.75c0,.51.19.79.6.79h.94a.68.68,0,0,0,.64-.41,9.85,9.85,0,0,0,.34-2.89l1.35.43c-.13,2-.34,3.25-.68,3.7a1.63,1.63,0,0,1-1.39.58h-1.65c-1,0-1.56-.64-1.56-1.88V25.49h-2c-.17,3.83-1.48,6.61-3.93,8.34l-.81-1.35q3.08-2.12,3.34-7h-2V18.71Zm-1.3-.73-1.28.64a27.4,27.4,0,0,0-1.9-3.72l1.26-.6C295.37,15.42,296,16.66,296.63,18Zm3.93,2.1h-6.2v4h6.2Zm8.19,7.66v1.82h-1.54V17.09H314V14.16h1.56v2.93h6.93V27.74h-6.93v2.63c0,1,.47,1.58,1.41,1.58h4.88a1.68,1.68,0,0,0,1.18-.36A6,6,0,0,0,323.5,29l1.45.49c-.13,1.82-.36,2.93-.75,3.31a3,3,0,0,1-2.07.56h-5.5c-1.75,0-2.61-.94-2.61-2.8V27.74Zm0-9.2v3.14H314V18.54Zm0,7.76H314V23.09h-5.26ZM321,18.54h-5.41v3.14H321Zm0,7.76V23.09h-5.41V26.3Zm15.21-3v-3a32.51,32.51,0,0,0,5.26-3.76h-12V15.05h14.11v1.45a41.36,41.36,0,0,1-5.8,4.56v2.25h8.13v1.5h-8.13v6.84a1.72,1.72,0,0,1-2,1.92h-3.66l-.41-1.5c1.07,0,2.2.06,3.44.06a.89.89,0,0,0,1-1V24.81h-9v-1.5Zm13.13-5.45V16.42h4.56a18.39,18.39,0,0,0-1.09-2.05l1.6-.26a19.42,19.42,0,0,1,1.11,2.31H360A21.36,21.36,0,0,0,361.4,14l1.48.51a13,13,0,0,1-1.18,1.95h4.83v1.43h-5.82V22h6.63V23.5H348.53V22h6.61V17.86Zm4.13,3.4-1.3.58a15.61,15.61,0,0,0-1.48-2.93l1.35-.45A18.17,18.17,0,0,1,353.47,21.26Zm11,12.45H363v-1H352.85v1h-1.48V25.06h13.09ZM363,28.29V26.35H352.85v1.95Zm0,3.1V29.53H352.85v1.86Zm-6.37-13.54V22h2.63V17.86ZM365.46,19a13.58,13.58,0,0,1-1.84,2.82l-1.22-.62a14.34,14.34,0,0,0,1.82-2.78ZM380,33.3a14,14,0,0,1-3.38-.38,4.9,4.9,0,0,1-2.29-1.56,1.18,1.18,0,0,0-.83-.53c-.51,0-1.37,1-2.54,3l-1.15-1q1.7-2.69,3-3.27v-6.5h-3V21.53h4.47v8a3.62,3.62,0,0,1,.53.49,4.84,4.84,0,0,0,1.67,1.35,8.19,8.19,0,0,0,2.93.51c1.13,0,2.54,0,4.23,0,1,0,2,0,3.06,0s1.82,0,2.37-.09l-.36,1.54h-4.85C382.66,33.34,381.38,33.32,380,33.3Zm-5-15.5L374,18.86a23.4,23.4,0,0,0-3.68-3.4l1-1A26.49,26.49,0,0,1,375,17.79Zm7.42.32a20.33,20.33,0,0,0,3.08-1.95h-9.5v-1.3h11.57V16a23.38,23.38,0,0,1-4.17,2.89l.34.28H388V28.7c0,1.09-.6,1.65-1.8,1.65h-1.77l-.34-1.3,1.69.06c.51,0,.77-.26.77-.73v-1.6H383v3.68h-1.43V26.77H378v3.74h-1.45V19.14h5.35a25.48,25.48,0,0,0-2.8-1.71l.94-.92C380.91,17,381.74,17.58,382.47,18.11Zm-.92,2.31H378v1.92h3.57ZM378,25.51h3.57V23.63H378Zm8.6-5.09H383v1.92h3.59ZM383,25.51h3.59V23.63H383Zm11.21-10.78,1.52.26-1.22,4.21h3.74a47.34,47.34,0,0,0,1-5.24l1.56.19c-.28,1.8-.62,3.46-1,5h10v1.48H399.41c-.26.86-.51,1.67-.81,2.44h8.75v1.33a10.87,10.87,0,0,1-3.49,5,34.66,34.66,0,0,0,6.33,2.82l-.79,1.43a33.68,33.68,0,0,1-6.8-3.27,30.34,30.34,0,0,1-6.52,3.36l-.81-1.43a29.53,29.53,0,0,0,6-2.89,11.59,11.59,0,0,1-3.55-4.17,22.14,22.14,0,0,1-6,8l-.79-1.41a24.13,24.13,0,0,0,6.91-11.25h-5.3Zm8.32,13.84a10.15,10.15,0,0,0,3.27-4h-6.93A11.46,11.46,0,0,0,402.51,28.57Zm5.73-10.91-1.09,1.09a23.72,23.72,0,0,0-3.76-3.61l1-1A26,26,0,0,1,408.24,17.66Zm23.36-2.72v1.35h-6.44V18h4.9v4.75H414.17V18h4.9V16.29h-6.46V14.95Zm-.34,12.23v1.35h-8.17v3.34c0,1.18-.64,1.77-1.92,1.77h-1.92l-.3-1.37c.6,0,1.18.09,1.73.09s.92-.28.92-.83v-3H413V27.18Zm-12.1,3a20.69,20.69,0,0,1-5.28,3.23l-.92-1.2a22.08,22.08,0,0,0,5.2-3Zm10.09-5.88v1.28H415.07V24.34Zm-10.18-5h-3.42v2.2h3.42Zm4.64-3h-3.19V18h3.19Zm0,3h-3.19v2.2h3.19Zm4.88,0h-3.42v2.2h3.42Zm2.84,13.11-1.07,1.07a28.42,28.42,0,0,0-4.9-3.25l1-1A33.09,33.09,0,0,1,431.43,32.4Z" id="上海增值税电子普通发票" transform="translate(-30 -10)"/>
        <path d="M316.07,85c-24.73,0-44.86-13.5-44.86-30.09s20.12-30.09,44.86-30.09,44.86,13.5,44.86,30.09S340.81,85,316.07,85Zm0-57c-23,0-41.72,12.09-41.72,27s18.72,27,41.72,27,41.72-12.09,41.72-27S339.08,27.93,316.07,27.93ZM316,80.06c-22.08,0-40-11.29-40-25.17s18-25.17,40-25.17,40,11.29,40,25.17S338.09,80.06,316,80.06Zm0-49.72c-21.73,0-39.42,11-39.42,24.55S294.27,79.44,316,79.44s39.42-11,39.42-24.55S337.74,30.34,316,30.34Zm-6.63,21.11V54h3v.57h-3V58H313v.57h-7.17V58h2.9V51.45Zm12.85,3.13-.41.41a7.69,7.69,0,0,0-1.24-1l.42-.4A9.23,9.23,0,0,1,322.22,54.58Zm.1,1.54a23.35,23.35,0,0,1-1.14,2.65l-.54-.23a22.92,22.92,0,0,0,1.18-2.61Zm0-3.54-.41.42a6.93,6.93,0,0,0-1.24-1l.42-.4A8.06,8.06,0,0,1,322.35,52.58Zm.85.71h4.09c0,.71,0,1.34-.06,1.89h.68v.54h-.71c0,.59-.06,1.07-.08,1.44h.66v.5h-.7a3.6,3.6,0,0,1-.06.43,1,1,0,0,1-.46.58,2.23,2.23,0,0,1-1,.17h-.7l-.17-.53.8,0a2.61,2.61,0,0,0,.59-.06.62.62,0,0,0,.39-.36,1.33,1.33,0,0,0,0-.26H322.7c.13-.65.24-1.3.32-1.94h-.81v-.54h.86c.06-.62.1-1.26.12-1.89a6.49,6.49,0,0,1-.53.61l-.37-.45a5.86,5.86,0,0,0,1.34-2.07l.58.12c-.08.2-.17.4-.26.57h3.72v.54h-4A8,8,0,0,1,323.21,53.29Zm.14,3.88h3.24c0-.36,0-.84.08-1.44h-3.09C323.5,56.25,323.43,56.74,323.34,57.17Zm3.39-3.36h-3c0,.49-.06.95-.1,1.38h3.06C326.7,54.77,326.72,54.31,326.73,53.81Zm-1,2.89-.38.37a6.66,6.66,0,0,0-1-.89l.36-.36A7,7,0,0,1,325.73,56.7Zm.08-2-.37.37a5.69,5.69,0,0,0-1-.81l.36-.36A6.44,6.44,0,0,1,325.81,54.74Zm-45.11-7a11.42,11.42,0,0,0,3.9-1.82l.31.51a11.28,11.28,0,0,1-3.86,1.75,11.58,11.58,0,0,1,.54,4.26H281a11.55,11.55,0,0,0-.51-4.33Zm3.22-.52.49.27-1,1.7,1.23.69,1.14-2,.49.27-1.14,2,1.31.73L288,48.22l.5.28-3.28,5.84-.5-.28,1.49-2.66-1.31-.73-1.14,2-.49-.27,1.14-2-1.23-.69-1,1.7-.49-.27Zm11.45-2.58-.5.3-.18-.3L290,47.44l.18.3-.5.3-3.62-6,5.67-3.4Zm-1-.47-2.87-4.79-4.66,2.79L289.75,47Zm-3.12-3.79.27.45-1.45.87.6,1L292,42l.27.44-1.24.74.66,1.1,1.65-1,.27.46L289.77,46l-.27-.46,1.64-1-.66-1.1-1.24.74-.27-.44,1.24-.74-.6-1-1.46.87-.27-.45Zm1.5,2.92-.28.41a5.21,5.21,0,0,0-.94-.54l.31-.37A5.17,5.17,0,0,1,292.79,43.3ZM296,36.84a12.55,12.55,0,0,1-.45,2.73c.32-.15.64-.32,1-.48.06-.31.11-.62.17-1l.56,0a19.55,19.55,0,0,1-.84,3.28,11.15,11.15,0,0,0,1.45-1.06l.16.52a10.9,10.9,0,0,1-2.11,1.4l-.31-.46a1.09,1.09,0,0,0,.2-.25,9,9,0,0,0,.59-1.9c-.39.2-.79.41-1.2.6l-.3-.47a.61.61,0,0,0,.18-.29,13.38,13.38,0,0,0,.33-2.75Zm2.44,5.45a11.74,11.74,0,0,1-2.13,1.6l-.24-.54a11.12,11.12,0,0,0,2.21-1.6Zm-.78-3,.1-.07a5,5,0,0,0,.55-1.8l-1.32.4-.16-.53,2-.6a7.38,7.38,0,0,0-.59-.69l.53-.27c.2.23.4.49.61.79l1.73-.53.16.53-2.35.72a8.17,8.17,0,0,1-.45,1.75c.7-.28,1.39-.59,2.06-.92-.25-.2-.51-.39-.78-.58l.34-.39a15.26,15.26,0,0,1,1.76,1.4l-.34.43c-.17-.17-.34-.33-.54-.49-.91.45-1.91.88-3,1.31Zm1.53.42a6.63,6.63,0,0,1,.3,2.26,3.1,3.1,0,0,1-.74,1.57l-.49-.33a2.73,2.73,0,0,0,.65-1.33,5.57,5.57,0,0,0-.26-2Zm2.66,2.75A.63.63,0,0,1,301,42l-.82-2.65.53-.16.79,2.56c0,.16.13.23.26.21l.5-.15a.32.32,0,0,0,.21-.37,7.88,7.88,0,0,0-.26-1l.53,0a3.68,3.68,0,0,1,.26,1.4c-.05.19-.24.34-.57.46ZM303.31,38l.08.58,7.17-1-.08-.58Zm9.56-4.16.57.09-.45,1.6h1.41a18,18,0,0,0,.37-2l.59.07c-.1.68-.22,1.31-.36,1.91l3.77,0v.56l-3.92,0c-.09.32-.19.63-.3.93l3.29,0v.5a4.12,4.12,0,0,1-1.3,1.9,13,13,0,0,0,2.39,1.05l-.29.54a12.65,12.65,0,0,1-2.57-1.22,11.4,11.4,0,0,1-2.45,1.29l-.31-.54a11.09,11.09,0,0,0,2.25-1.11,4.38,4.38,0,0,1-1.35-1.57A8.38,8.38,0,0,1,312,40.92l-.3-.53a9.14,9.14,0,0,0,2.57-4.28l-2,0ZM316,39.08a3.84,3.84,0,0,0,1.22-1.54l-2.61,0A4.33,4.33,0,0,0,316,39.08Zm2.13-4.15-.41.42A9,9,0,0,0,316.33,34l.38-.38A9.79,9.79,0,0,1,318.17,34.94Zm4.19,5.15a7.79,7.79,0,0,1-2.13.95l-.28-.5A8.31,8.31,0,0,0,322,39.7Zm4.67-.53-.07.51-3-.41-.17,1.25c-.06.44-.33.63-.81.57l-.72-.1,0-.53c.22,0,.43.09.64.12s.36-.06.39-.27l.15-1.12-3.22-.43.07-.51Zm.75-4.57-.07.51-2.4-.32-.09.64,1.83.25-.24,1.78-5.92-.8.24-1.78,1.83.25.09-.64-2.41-.32.07-.51Zm-1.35,3.4-.07.48-5.29-.71.07-.48ZM322.88,36l-1.28-.17-.11.83,1.28.17Zm1.73.23-1.19-.16-.11.83,1.19.16Zm.15-1.12-1.19-.16-.09.64,1.19.16Zm2.06,6.43-.45.35a10.67,10.67,0,0,0-1.66-1.46l.43-.31A12.42,12.42,0,0,1,326.82,41.52Zm-.39-5.06-1.28-.17-.11.83,1.28.17Zm7.47,6.8.82.25-.15.5-7-2.12.15-.5.86.26.66-2.15,5.28,1.61Zm-3.72-1.14.5-1.64-1-.31-.5,1.64Zm.49-6.39-1,3.16-.55-.17,1-3.16Zm1.72.11-1.17,3.82-.56-.17,1.17-3.82Zm-.6,6.77.5-1.64-1.08-.33-.5,1.64Zm.35-3.51-.22-.54a5.81,5.81,0,0,0,1.92-2.32l.54.28c-.16.29-.31.56-.47.81l2.29.7-.17.54-2.48-.76A5.39,5.39,0,0,1,332.13,39.11Zm1.24,4,.5-1.64-1.05-.32-.5,1.64Zm1.35-2.84-.56.18a11.87,11.87,0,0,0-.5-1.7l.53-.14A10.68,10.68,0,0,1,334.71,40.27Zm3.25,0-.23-.53a3.3,3.3,0,0,0,1.59-1.16l.42.36a5.52,5.52,0,0,1-.5.53l.8.48.51-.86.5.3-.51.86,1.29.77-.28.47-1.29-.77-.53.9,1.49.89L341,43l-1.49-.89-.43.73,1.35.8-1.09,1.84a.64.64,0,0,1-1,.25l-.37-.22.16-.55.33.22a.3.3,0,0,0,.46-.1l.75-1.27-.87-.52-1.47,2.48-.5-.3L338.25,43l-.88-.52-1.21,2-.48-.29,1.49-2.51,1.36.81.43-.73-1.67-1,.28-.47,1.67,1,.53-.9-1-.57A3,3,0,0,1,338,40.28ZM339.47,47l.17-.55c.32.22.63.42.93.6a.34.34,0,0,0,.52-.15l3.28-5.52.49.29-3.35,5.65a.67.67,0,0,1-1,.28Zm3.6-5.54-2.55,4.3-.48-.29,2.55-4.3Zm1.23,6.75L346.44,47,349,51.34l-2.13,1.23-1.12-1.93-.49.28,1.61,2.79-.45.26-1.61-2.79-.88.51-.3-.52.88-.51-1.63-2.82.45-.26,1.63,2.82.49-.28Zm.71.25,2,3.4.45-.26-2-3.4Zm3.25,2.65-2-3.4-.45.26,2,3.4Zm-.55-5.44.44-.26,1.33,2.3a4.23,4.23,0,0,0,.36-.46l.39.49c-.13.17-.27.34-.44.52l1.37,2.37-.44.26-.6-1-.8.13.95,1.64-.43.25-3.43-5.94.43-.25,1,1.66.5-.63Zm1.33,3.8.79-.13-1.22-2.11-.5.63ZM294,72.37l-.51-.27.16-.3-4.7-2.54-.16.3-.51-.27,3.28-6.08,5.71,3.09Zm-.09-1.05,2.61-4.83L291.79,64l-2.61,4.83Zm1.63-4.53-.25.45-1.46-.79-.54,1,1.24.67-.24.45L293,67.91l-.6,1.11,1.66.9-.25.46L290,68.31l.25-.46,1.65.9.6-1.11L291.27,67l.24-.45,1.24.67.54-1-1.47-.79.25-.45Zm-1.71,2.72-.49,0a5.11,5.11,0,0,0,0-1.07l.47.08A5.07,5.07,0,0,1,293.8,69.52Zm6.32,1.75a4.24,4.24,0,0,1-.16,1.25,2.43,2.43,0,0,1-.62,1.17,1.57,1.57,0,0,1-1.37,0l-.26-.08,0-.53.36.11a1.27,1.27,0,0,0,.9,0,1.67,1.67,0,0,0,.49-.9c0-.14.06-.26.08-.39a10.48,10.48,0,0,1-3.81.62l-.13-.55a10.19,10.19,0,0,0,4-.63,3.86,3.86,0,0,0,0-.64,8.72,8.72,0,0,1-3.31.49l-.13-.55a8.63,8.63,0,0,0,3.33-.4,3.34,3.34,0,0,0-.18-.49l-.19,0a15.08,15.08,0,0,1-2.28.11l-.14-.53a11.36,11.36,0,0,0,2.15,0c.31,0,.61-.08.89-.14l-2-.61.15-.51,4.52,1.37-.15.51-1.73-.52c-.26.08-.5.16-.74.22a3.71,3.71,0,0,1,.37,1.08,7.44,7.44,0,0,0,2.28-.31l.26.48a7.1,7.1,0,0,1-1.5.28,5,5,0,0,0,1,2.81l-.52.33a5.9,5.9,0,0,1-1-3.12Zm.67-3.58,2.84.86-.4,1.32-.54-.16.25-.81-5.3-1.6-.25.81-.54-.16.4-1.32,3,.9a6.44,6.44,0,0,0-.08-.7l.58.07C300.78,67.13,300.79,67.4,300.79,67.69Zm4.05,2.51L305,69h-1.08l0-.53a12.44,12.44,0,0,0,2.59-.13l.12.55c-.33,0-.68.08-1,.1l-.18,1.25,1,.14-.08.54-1-.14-.07.5a17.2,17.2,0,0,1,.94,1.5l-.38.43c-.24-.56-.45-1-.64-1.36l-.49,3.41-.55-.08.49-3.44a8.46,8.46,0,0,1-1.36,1.86l-.16-.69a6.53,6.53,0,0,0,1.62-2.22l-1.09-.16.08-.54Zm3.85.1a11.64,11.64,0,0,0,1-1.61l.5.26a8.8,8.8,0,0,1-.93,1.43l.9.13L309.81,73l-.84-.12-.3,2.12c0,.19,0,.3.18.32l.34,0a.25.25,0,0,0,.26-.12,3.68,3.68,0,0,0,.28-1l.47.23a3.29,3.29,0,0,1-.44,1.32.6.6,0,0,1-.54.14l-.6-.09c-.38-.05-.54-.32-.47-.77l.32-2.23-.72-.1a3.75,3.75,0,0,1-1.87,2.86l-.23-.54a3.14,3.14,0,0,0,1.59-2.4l-.72-.1.35-2.49Zm.89.64-2.27-.32-.21,1.49,2.27.32Zm-1.33-1-.5.17a10.21,10.21,0,0,0-.5-1.47l.49-.15C307.92,68.95,308.09,69.44,308.25,70Zm5.51-1a4.77,4.77,0,0,1-.31.6l3.44,0v.46A6.92,6.92,0,0,1,315,71.55a10.17,10.17,0,0,0,3,.77l-.27.53a9.88,9.88,0,0,1-3.33-1,12.69,12.69,0,0,1-3.38.93l-.25-.54a12.78,12.78,0,0,0,3-.73,8.17,8.17,0,0,1-1.22-.91,6.68,6.68,0,0,1-1,.73l-.34-.46a4.3,4.3,0,0,0,2-2Zm.71,3.46a5.52,5.52,0,0,1-.09.9l2.78,0a4.85,4.85,0,0,1-.39,2.4,1.51,1.51,0,0,1-1.19.38l-.92,0-.14-.52.93.05c.47,0,.77-.1.9-.29a3.81,3.81,0,0,0,.23-1.47l-2.34,0a3.29,3.29,0,0,1-.26.59,4.67,4.67,0,0,1-2.8,1.74l-.37-.47a4.74,4.74,0,0,0,2.58-1.42,2.5,2.5,0,0,0,.25-.45l-2.35,0V73.3l2.51,0a4.19,4.19,0,0,0,.11-.9Zm1.61-2.29-3,0-.1.13a7.45,7.45,0,0,0,1.45,1A7.1,7.1,0,0,0,316.08,70.14Zm3.69,1.58,5.23-.6a31.3,31.3,0,0,1,.3,3.63c0,.44-.32.7-.88.77l-1,.09-.18-.47,1.07-.1a.46.46,0,0,0,.47-.44c0-.32-.08-1.29-.24-2.91l-4.69.54a6.77,6.77,0,0,1-.65,3.89l-.48-.34a5.71,5.71,0,0,0,.58-3.51l-.35-3.09,5.4-.62.22,1.92-4.85.56Zm-.24-2.08.1.87,4.3-.49-.1-.87Zm3.88,2.9.23,2-2.77.32-.23-2Zm-.46.53-1.75.2.12,1,1.75-.2ZM326,68.28l.82,3.13-.54.14-.82-3.13Zm6.58,4.62.82-.21.13.5L326.65,75l-.13-.5.85-.22-.56-2.13,5.23-1.38Zm-5.09-5.41,1,3.79-.56.15-1-3.79Zm1.39,6.38-.43-1.63-1,.27.43,1.63Zm.07-3.53-.46-.34a5.7,5.7,0,0,0,.41-2.92l.59,0c0,.32,0,.63,0,.92l2.27-.6.14.54-2.46.65A5.29,5.29,0,0,1,329,70.34Zm1.52,3.11-.43-1.63L329,72.1l.43,1.63ZM331.74,70l-.38.44a11.66,11.66,0,0,0-1.29-1.16l.37-.39A10.48,10.48,0,0,1,331.74,70Zm.34,3.06-.43-1.63-1,.27.43,1.63Zm.66-4.52-.56-.11a3.23,3.23,0,0,0-.07-1.93l.52-.15a5.41,5.41,0,0,1,.16.7l.83-.39-.42-.89.51-.24.42.89,1.34-.62.23.48-1.34.62.44.93,1.54-.72.23.48-1.54.72.35.76,1.39-.65.89,1.9a.63.63,0,0,1-.34.94l-.38.18-.36-.43.36-.14a.29.29,0,0,0,.18-.42l-.61-1.31-.9.42,1.2,2.56-.51.24-1.2-2.56-.91.42,1,2.11-.5.23-1.21-2.59,1.41-.66-.35-.76-1.73.81-.23-.48,1.73-.81-.44-.93-1,.47A2.91,2.91,0,0,1,332.74,68.51ZM336.5,65l2.08,4.45-.5.23L336,65.24ZM339,71l-.35-.44c.35-.14.69-.28,1-.43a.33.33,0,0,0,.17-.5l-2.67-5.71.51-.24,2.74,5.84a.65.65,0,0,1-.34,1Z" id="税务局印章" style="fill:#ff0000" transform="translate(-30 -10)"/>
    </g>
    <g>
        <image height="56" width="56" x="12" y="5" xlink:href="qrcode.png"/>
        <text x="45" y="70.5">机器编号</text>
        <text x="467.53" y="25.1">
            <tspan>发票代码</tspan>
            <tspan x="467.53" dy="16">发票号码</tspan>
            <tspan x="467.53" dy="15.2">开票日期</tspan>
            <tspan x="467.53" dy="15.2">校验码</tspan>
        </text>

        <text x="91" y="89">
            <tspan>购买方名称</tspan>
            <tspan x="91" dy="14">购买方纳税人识别号</tspan>
            <tspan x="91" dy="14">购买方地址电话</tspan>
            <tspan x="91" dy="14">购买方开户行及账号</tspan>
        </text>
        <text class="mono" x="372" y="92.82" style="letter-spacing:1.1;">
            <tspan>026&gt;**&gt;-46*+*-5&lt;09&gt;7422457//</tspan>
            <tspan x="372" dy="12">*/-192+1&lt;&gt;64*61&lt;-*55&gt;-*1/355</tspan>
            <tspan x="372" dy="12">&gt;&lt;6&gt;**&gt;-46*+*-5&lt;09332719/800</tspan>
            <tspan x="372" dy="12">1315544&lt;&lt;101&gt;12932280-1251*+</tspan>
        </text>
        <text id="项目一" x="8.5" y="168">
            <tspan>项目名称123</tspan>
            <tspan x="457" text-anchor="end">1122200.00</tspan>
            <tspan x="477" text-anchor="middle">16%</tspan>
            <tspan x="567" text-anchor="end">122222200.00</tspan>
        </text>
        <text id="项目二" x="8.5" y="184">
            <tspan>项目名称</tspan>
            <tspan x="457" text-anchor="end">212.00</tspan>
            <tspan x="477" text-anchor="middle">16%</tspan>
            <tspan x="567" text-anchor="end">342.00</tspan>
        </text>
        <text id="项目三" x="8.5" y="200">
            <tspan>项目名称</tspan>
            <tspan x="457" text-anchor="end">1.00</tspan>
            <tspan x="477" text-anchor="middle">126%</tspan>
            <tspan x="567" text-anchor="end">213.00</tspan>
        </text>
        <text id="项目四" x="8.5" y="216">
            <tspan>项目名称</tspan>
            <tspan x="457" text-anchor="end">123.00</tspan>
            <tspan x="477" text-anchor="middle">6%</tspan>
            <tspan x="567" text-anchor="end">1234.00</tspan>
        </text>
        <text id="项目五" x="8.5" y="232">
            <tspan>项目名称</tspan>
            <tspan x="457" text-anchor="end">12345.00</tspan>
            <tspan x="477" text-anchor="middle">16%</tspan>
            <tspan x="567" text-anchor="end">122222200.00</tspan>
        </text>
        <text x="456" y="263.11" text-anchor="end">￥ 1122.00</text>
        <text x="567" y="263.11" text-anchor="end">￥ 22.00</text>
        <text x="158.25" y="282.74">价税合计大写</text>
        <text x="567" y="282.74" text-anchor="end">33.00</text>
        
        <text x="91" y="299">
            <tspan>销售方名称</tspan>
            <tspan x="91" dy="14">销售方纳税人识别号</tspan>
            <tspan x="91" dy="14">销售方地址电话</tspan>
            <tspan x="91" dy="14">销售方开户行及账号</tspan>
        </text>
        <text x="362" y="304.18">
            <tspan>备注行1</tspan>
            <tspan x="362" dy="15">备注行2</tspan>
            <tspan x="0362" dy="15">备注行3备注行3备注行3备注行3备注行3备注</tspan>
        </text>
        <text x="49.73" y="360.50">收款人</text>
        <text x="190.42" y="360">复核</text>
        <text x="345.91" y="360.50">开票人</text>        
        <image height="84.99" width="113.32" x="456" y="294" xlink:href="sign.png"/>
    </g>
</svg>